<?xml version="1.0" standalone="no"?>
<!DOCTYPE svg PUBLIC "-//W3C//DTD SVG 20010904//EN"
 "http://www.w3.org/TR/2001/REC-SVG-20010904/DTD/svg10.dtd">
<svg version="1.0" xmlns="http://www.w3.org/2000/svg"
 width="544.000000pt" height="544.000000pt" viewBox="0 0 544.000000 544.000000"
 preserveAspectRatio="xMidYMid meet">
<metadata>
Created by potrace 1.14, written by Peter Selinger 2001-2017
</metadata>
<g transform="translate(0.000000,544.000000) scale(0.100000,-0.100000)"
fill="#000000" stroke="none">
<path d="M1275 5312 c-221 -34 -374 -252 -333 -472 28 -154 165 -290 318 -316
25 -4 641 -9 1370 -10 729 -1 1327 -2 1329 -3 2 0 -836 -841 -1863 -1867
-1026 -1027 -1866 -1870 -1866 -1875 0 -4 -6 -14 -13 -21 -29 -30 -59 -134
-60 -208 0 -128 90 -289 191 -341 15 -8 29 -17 32 -20 3 -3 35 -14 72 -24 88
-23 203 -15 265 19 16 8 39 20 53 26 14 6 863 849 1886 1872 1024 1023 1865
1859 1870 1857 4 -2 9 -607 9 -1344 1 -737 5 -1353 10 -1370 49 -179 231 -311
410 -298 55 4 168 38 188 57 6 6 26 22 44 34 59 42 125 153 141 237 3 17 5
863 5 1880 1 1901 1 1874 -36 1955 -43 94 -128 173 -224 211 l-58 22 -1860 1
c-1023 1 -1869 0 -1880 -2z"/>
</g>
</svg>
