<svg width="34" height="33" viewBox="0 0 34 33" fill="none" xmlns="http://www.w3.org/2000/svg">
<path d="M1.71414 28.3609C0.737825 29.3373 0.737825 30.9202 1.71414 31.8965C2.69045 32.8728 4.27336 32.8728 5.24967 31.8965L1.71414 28.3609ZM33.3358 2.77483C33.3358 1.39411 32.2165 0.274825 30.8358 0.274825L8.33579 0.274824C6.95508 0.274824 5.83579 1.39411 5.83579 2.77482C5.83579 4.15554 6.95508 5.27482 8.33579 5.27482H28.3358V25.2748C28.3358 26.6555 29.4551 27.7748 30.8358 27.7748C32.2165 27.7748 33.3358 26.6555 33.3358 25.2748L33.3358 2.77483ZM5.24967 31.8965L32.6036 4.54259L29.068 1.00706L1.71414 28.3609L5.24967 31.8965Z" fill="#FFC700"/>
</svg>
