<svg width="18" height="20" viewBox="0 0 18 20" fill="none" xmlns="http://www.w3.org/2000/svg">
<path d="M17.8071 14.4785C17.1371 13.1415 14.8103 11.6917 14.7078 11.6283C14.4088 11.4486 14.0968 11.3535 13.8048 11.3535C13.3707 11.3535 13.0153 11.5635 12.8001 11.9453C12.4597 12.375 12.0376 12.8773 11.9352 12.9551C11.1423 13.5229 10.5216 13.4585 9.83491 12.7336L6.00212 8.68751C5.31972 7.9672 5.25699 7.30395 5.79123 6.47163C5.86598 6.36279 6.34182 5.91687 6.74892 5.55724C7.00854 5.39416 7.18673 5.15182 7.26481 4.85454C7.36859 4.45899 7.29217 3.99369 7.04725 3.54037C6.98952 3.43611 5.61537 0.979658 4.34935 0.272732C4.11309 0.140645 3.84681 0.0709038 3.57985 0.0709038C3.14005 0.0709038 2.72627 0.25195 2.41527 0.579876L1.56836 1.47348C0.228922 2.88698 -0.255932 4.48928 0.126479 6.23564C0.445488 7.69105 1.37515 9.23981 2.89011 10.8386L7.79705 16.0181C9.71444 18.042 11.5424 19.0684 13.2302 19.0684C13.2302 19.0684 13.2302 19.0684 13.2306 19.0684C14.4719 19.0684 15.6291 18.5116 16.6692 17.4137L17.5158 16.5201C18.0304 15.9773 18.1472 15.1566 17.8071 14.4785Z" fill="#FFC700"/>
</svg>
