<svg width="35" height="97" viewBox="0 0 35 97" fill="none" xmlns="http://www.w3.org/2000/svg">
<path d="M33.8546 87.7252C34.8384 87.223 35.2289 86.0184 34.7267 85.0346L26.5434 69.0023C26.0413 68.0185 24.8366 67.628 23.8528 68.1302C22.869 68.6324 22.4785 69.837 22.9807 70.8208L30.2547 85.0717L16.0038 92.3457C15.02 92.8479 14.6295 94.0525 15.1317 95.0364C15.6339 96.0202 16.8385 96.4106 17.8223 95.9085L33.8546 87.7252ZM16.9663 2C15.7376 0.421942 15.7366 0.422684 15.7356 0.423486C15.7352 0.423835 15.7341 0.4247 15.7332 0.425398C15.7314 0.426794 15.7293 0.428436 15.7269 0.430323C15.7221 0.434096 15.7161 0.43885 15.7088 0.444583C15.6944 0.456049 15.6751 0.471436 15.6512 0.490742C15.6034 0.52935 15.5372 0.583643 15.4539 0.653601C15.2874 0.793498 15.0527 0.996166 14.762 1.26145C14.1807 1.79183 13.3738 2.5737 12.4382 3.60588C10.5684 5.66867 8.17439 8.74221 6.04118 12.8168C1.75717 20.9996 -1.43173 33.1469 2.67051 49.0624L6.54392 48.064C2.71624 33.2138 5.70688 22.0794 9.5849 14.6721C11.5327 10.9516 13.7153 8.15293 15.4019 6.29227C16.2445 5.36272 16.9607 4.67005 17.458 4.21633C17.7066 3.98956 17.9001 3.82278 18.0269 3.71625C18.0903 3.66299 18.137 3.62482 18.1655 3.60177C18.1797 3.59025 18.1895 3.58251 18.1944 3.57855C18.1969 3.57657 18.1982 3.57554 18.1983 3.57546C18.1984 3.57542 18.1981 3.57562 18.1976 3.57605C18.1973 3.57626 18.1967 3.57677 18.1965 3.57688C18.1958 3.57744 18.195 3.57806 16.9663 2ZM2.67051 49.0624C6.7368 64.8384 14.0357 74.5223 20.41 80.2754C23.5889 83.1445 26.5221 85.0219 28.6818 86.1891C29.7618 86.7726 30.6491 87.179 31.2782 87.4434C31.5929 87.5756 31.8431 87.6723 32.0209 87.738C32.1097 87.7708 32.1805 87.7959 32.2321 87.8138C32.258 87.8228 32.279 87.8299 32.2951 87.8353C32.3032 87.838 32.31 87.8403 32.3156 87.8421C32.3184 87.843 32.3209 87.8439 32.3231 87.8446C32.3242 87.8449 32.3256 87.8454 32.3261 87.8455C32.3274 87.846 32.3287 87.8464 32.9453 85.9438C33.562 84.0413 33.5631 84.0416 33.5641 84.042C33.5643 84.042 33.5653 84.0423 33.5657 84.0425C33.5667 84.0428 33.5673 84.043 33.5676 84.0431C33.5683 84.0433 33.5677 84.0431 33.5659 84.0425C33.5624 84.0413 33.554 84.0385 33.541 84.034C33.5149 84.025 33.4701 84.0092 33.4076 83.9861C33.2825 83.9398 33.0865 83.8644 32.8276 83.7556C32.3098 83.5381 31.5407 83.1873 30.5835 82.67C28.6689 81.6354 26.0043 79.9362 23.09 77.3059C17.2777 72.0601 10.4075 63.0537 6.54392 48.064L2.67051 49.0624Z" fill="#FFC700"/>
</svg>
