<svg width="644" height="62" viewBox="0 0 644 62" fill="none" xmlns="http://www.w3.org/2000/svg">
<path d="M316.718 59.6272L316.675 61.6267L316.718 59.6272ZM0.0543213 7.39202C-0.201416 6.31746 0.462402 5.23904 1.53693 4.9833L19.0479 0.815715C20.1224 0.559971 21.2008 1.22375 21.4565 2.2983C21.7123 3.37286 21.0485 4.45128 19.9739 4.70702L4.40869 8.41154L8.11322 23.9768C8.36896 25.0513 7.7052 26.1298 6.63068 26.3855C5.55609 26.6412 4.47766 25.9775 4.22192 24.9029L0.0543213 7.39202ZM642 6.92896C643.1 8.59914 643.099 8.60005 643.097 8.60118C643.096 8.60185 643.094 8.6032 643.092 8.60454C643.088 8.60721 643.082 8.61076 643.076 8.61518C643.062 8.62401 643.043 8.6363 643.019 8.65201C642.97 8.68342 642.9 8.72847 642.807 8.7867C642.623 8.90315 642.35 9.0723 641.988 9.29046C641.264 9.72679 640.181 10.3591 638.725 11.158C635.812 12.7557 631.406 15.0193 625.385 17.7128C613.343 23.0997 594.845 30.205 568.926 37.1409C517.087 51.013 435.577 64.2048 316.675 61.6267L316.762 57.6276C435.327 60.1984 516.457 47.0411 567.892 33.2769C593.61 26.3946 611.908 19.3599 623.752 14.0615C629.674 11.4122 633.983 9.1967 636.801 7.65104C638.21 6.87819 639.246 6.27276 639.924 5.86424C640.263 5.65997 640.512 5.50492 640.674 5.40279C640.755 5.35172 640.815 5.31387 640.852 5.28972C640.871 5.27764 640.884 5.26898 640.892 5.2638C640.896 5.26122 640.899 5.2595 640.9 5.25865C640.901 5.25823 640.901 5.25826 640.901 5.25805C640.9 5.2583 640.9 5.25877 642 6.92896ZM316.675 61.6267C197.815 59.0495 118.981 45.8595 69.8137 33.2849C45.2296 26.9974 28.0616 20.8635 17.0154 16.2867C11.4924 13.9982 7.50006 12.0991 4.87653 10.7648C3.56482 10.0977 2.59534 9.57175 1.94794 9.20899C1.62421 9.02761 1.38104 8.88702 1.21582 8.78997C1.13318 8.74144 1.07013 8.7038 1.02618 8.67739C1.00421 8.66418 0.987061 8.65378 0.97467 8.64623C0.968445 8.64246 0.96344 8.6394 0.959595 8.63705C0.957703 8.63588 0.955688 8.63466 0.954712 8.63407C0.953064 8.63304 0.95166 8.63218 2 6.92896C3.04834 5.22573 3.04755 5.22524 3.04706 5.22492C3.04724 5.22506 3.04706 5.22493 3.04749 5.2252C3.0484 5.22575 3.05048 5.22702 3.05371 5.229C3.06024 5.23298 3.07153 5.23982 3.08759 5.24949C3.11975 5.26882 3.17108 5.29946 3.24188 5.34106C3.38354 5.42426 3.60309 5.5513 3.9032 5.71944C4.5033 6.05571 5.42548 6.55638 6.68988 7.19947C9.21875 8.48563 13.1169 10.3415 18.5466 12.5913C29.4061 17.0908 46.3927 23.1661 70.8049 29.4096C119.63 41.8968 198.155 55.0559 316.762 57.6276L316.675 61.6267Z" fill="#FFC700"/>
</svg>
