<svg width="587" height="588" viewBox="0 0 587 588" fill="none" xmlns="http://www.w3.org/2000/svg">
<path d="M26.6286 242.584C11.2771 244.406 35.2272 270.174 38.1066 270.046C34.4578 262.56 41.7219 246.571 26.6286 242.584Z" fill="#8A8A8A"/>
<path d="M25.9417 247.876C28.1903 249.014 29.6793 250.552 30.7071 252.33C33.8965 257.934 34.7904 261.4 33.6175 255.391C32.953 251.968 31.4345 248.902 27.9084 246.877C22.3772 243.688 24.9589 247.369 25.9417 247.876Z" fill="#CBCBCB"/>
<path d="M25.2675 243.925C38.7962 247.496 34.3765 260.708 35.9264 268.787C36.9341 269.592 37.7146 270.057 38.1066 270.046C34.4577 262.56 41.7219 246.571 26.6285 242.584C24.3021 242.864 22.8771 243.706 22.1386 244.916C22.9259 244.436 23.942 244.078 25.2675 243.925Z" fill="#404040"/>
<path d="M72.8724 332.677C83.7784 321.39 78.7345 312.462 62.4292 313.506C57.8617 313.473 62.4565 332.21 71.8262 339.075C71.853 339.102 71.8801 339.102 71.9069 339.13C69.9999 337.467 70.7891 334.838 72.8724 332.677Z" fill="#8A8A8A"/>
<path d="M71.8632 333.94C66.0223 328.722 62.3486 319.06 62.0504 313.558C58.1376 314.57 62.7117 332.414 71.8126 339.088C71.8394 339.116 71.8664 339.116 71.8933 339.143C70.3625 337.781 70.6066 335.796 71.8632 333.94Z" fill="#404040"/>
<path d="M70.9105 333.001C69.3855 334.584 69.521 336.41 70.429 337.93C70.8856 338.338 71.3423 338.72 71.8128 339.061C71.8397 339.089 71.8667 339.089 71.8935 339.116C69.9999 337.467 70.7758 334.824 72.8724 332.677C83.7784 321.39 78.7345 312.462 62.4292 313.506C62.1049 313.504 61.8068 313.61 61.5756 313.811C76.9722 313.233 81.5714 321.982 70.9105 333.001Z" fill="#CBCBCB"/>
<path d="M63.7754 316.097C63.9385 317.842 64.933 322.363 70.3028 329.199C70.5707 329.525 71.0566 329.61 71.3963 329.355C71.9805 328.914 72.8382 328.041 73.5516 326.56C73.7299 326.196 73.7196 325.75 73.5738 325.357C72.9765 323.853 71.2351 319.854 68.6493 316.74C68.1803 316.183 67.5617 315.773 66.8739 315.565C66.2805 315.399 65.4979 315.231 64.5654 315.238C64.106 315.235 63.7383 315.624 63.7754 316.097Z" fill="#CBCBCB"/>
<path d="M71.2825 317.016C72.7767 317.824 75.2349 319.883 74.8954 321.988C74.5288 324.094 74.0864 321.739 72.6542 319.823C71.222 317.908 70.2862 316.495 71.2825 317.016Z" fill="#CBCBCB"/>
<path d="M299.294 350.175C299.294 350.175 287.322 348.102 275.605 346.315C263.861 344.473 252.384 343.039 252.384 343.039C243.81 342.072 236.174 338.354 229.781 332.984C223.4 327.627 218.331 320.36 215.229 312.013C215.229 312.013 209.636 311.676 201.234 311.183C197.047 310.882 192.143 310.725 186.873 310.552C181.618 310.366 176.011 310.122 170.403 310.123C164.781 310.082 159.174 309.92 153.89 310.004C148.632 310.06 143.699 310.119 139.483 310.17C131.062 310.42 125.439 310.596 125.439 310.596C123.733 314.692 121.517 318.487 118.911 321.887C116.319 325.328 113.31 328.401 109.98 330.985C106.651 333.569 103.001 335.637 99.0838 337.19C95.1669 338.77 91.0109 339.781 86.63 340.101C86.63 340.101 85.8863 340.163 84.6153 340.262C83.3173 340.361 81.4921 340.469 79.2876 340.71C69.4873 341.085 69.4412 336.22 72.8723 332.677C83.7783 321.39 78.7344 312.462 62.4291 313.506C67.7032 313.004 72.8285 312.514 76.8043 312.137C79.0629 311.897 80.9555 311.802 82.2808 311.676C83.5922 311.591 84.363 311.529 84.363 311.529C86.6616 311.357 88.8416 310.764 90.8217 309.779C83.2474 306.94 77.2768 300.964 75.1002 293.584C74.6911 292.216 74.4176 290.795 74.2929 289.334C74.1547 287.887 74.1787 286.442 74.3512 285.01C75.2043 277.273 80.2529 270.552 87.6874 266.552C85.4895 265.874 83.1533 265.627 80.733 265.813C80.733 265.813 79.9352 265.874 78.5561 265.973C77.1634 266.084 75.1894 266.205 72.8228 266.445C68.0626 266.897 61.7608 267.5 55.4319 268.103C49.1293 268.814 42.8267 269.526 38.1065 270.046C34.4577 262.56 41.7218 246.571 26.6285 242.584C26.6285 242.584 29.8481 242.121 34.7034 241.602C39.5454 241.042 46.0104 240.305 52.4888 239.581C58.9664 238.966 65.4574 238.364 70.3259 237.885C72.7466 237.646 74.7882 237.512 76.208 237.401C77.6411 237.303 78.4525 237.228 78.4525 237.228C85.1318 236.762 91.5726 237.498 97.5307 239.595C103.476 241.651 108.885 244.799 113.465 248.845C122.649 256.993 128.484 268.684 129.227 281.798C129.227 281.798 130.525 281.753 132.796 281.661C135.067 281.57 138.324 281.499 142.23 281.459C146.136 281.42 150.677 281.371 155.57 281.326C160.435 281.307 165.637 281.412 170.839 281.463C176.056 281.473 181.257 281.659 186.134 281.843C190.998 282.04 195.565 282.127 199.469 282.358C207.25 282.82 212.45 283.141 212.45 283.141C213.051 276.591 214.92 270.456 217.811 264.949C220.729 259.47 224.683 254.715 229.44 250.83C238.97 242.966 251.81 239.059 265.312 240.642C265.312 240.642 278.49 242.305 291.273 244.303C304.138 246.274 316.623 248.432 316.623 248.432L311.824 276.695C311.824 276.695 299.461 274.552 286.92 272.637C274.42 270.682 261.715 269.09 261.715 269.09C259.299 268.762 256.932 268.975 254.685 269.553C262.006 273.741 266.725 280.897 267.21 288.604C267.308 290.037 267.257 291.482 267.057 292.913C266.857 294.372 266.523 295.775 266.04 297.136C263.501 304.469 257.299 309.965 249.631 312.586C251.556 313.667 253.686 314.277 255.982 314.591C255.982 314.591 267.931 316.096 279.958 317.98C291.986 319.81 304.106 321.898 304.106 321.898L299.294 350.175Z" fill="#8A8A8A"/>
<path d="M255.982 314.591C255.982 314.591 267.931 316.096 279.972 317.967C291.986 319.81 304.12 321.911 304.12 321.911L303.146 327.567C303.146 327.567 290.378 325.367 277.756 323.451C271.439 322.487 265.161 321.59 260.449 320.975C255.751 320.373 252.618 319.972 252.618 319.972C248.405 319.51 244.773 317.294 242.215 314.073C242.215 314.073 246.218 313.561 249.631 312.613C251.556 313.667 253.686 314.277 255.982 314.591Z" fill="#CBCBCB"/>
<path d="M258.776 245.663C269.524 246.849 283.915 248.926 295.403 250.752C306.93 252.565 315.649 254.087 315.649 254.087L313.717 265.384C313.717 265.384 305.105 263.89 293.726 262.091C282.374 260.293 268.186 258.231 257.397 257.032C245.757 255.732 238.062 260.284 233.028 264.924C227.981 269.496 225.531 273.897 224.124 272.225C222.315 270.036 225.138 262.799 231.374 256.331C234.492 253.123 238.473 250.03 243.11 248.037C247.773 246.07 253.078 245.027 258.776 245.663Z" fill="#404040"/>
<path d="M237.202 313.942C238.89 314.13 240.565 314.142 242.228 314.06C244.773 317.294 248.405 319.51 252.618 319.972C252.618 319.972 255.751 320.373 260.449 320.975C265.161 321.59 271.452 322.5 277.756 323.451C290.378 325.366 303.146 327.567 303.146 327.567L301.213 338.864C301.213 338.864 289.849 336.917 278.658 335.174C267.454 333.418 256.41 331.987 256.41 331.987C246.284 330.724 238.255 323.477 234.744 313.654L237.202 313.942Z" fill="#404040"/>
<path d="M230.091 316.148C231.874 316.296 233.447 317.402 234.259 319.097C238.199 327.531 245.628 333.571 254.742 334.678C254.742 334.678 266.07 336.124 277.571 337.91C289.059 339.682 300.747 341.685 300.747 341.685L299.308 350.161C299.308 350.161 287.336 348.089 275.618 346.301C263.875 344.46 252.398 343.026 252.398 343.026C244.35 342.103 237.104 338.807 230.977 333.925C224.822 329.124 219.828 322.588 216.464 314.982L230.091 316.148Z" fill="#CBCBCB"/>
<path d="M262.21 241.715C273.012 243.009 286.673 244.999 297.499 246.726C308.243 248.506 316.383 249.849 316.383 249.849L314.703 259.742C314.703 259.742 306.685 258.414 296.049 256.662C285.345 254.95 271.832 252.974 260.989 251.666C247.581 250.177 244.856 253.212 242.596 251.736C240.875 250.642 244.224 239.72 262.21 241.715Z" fill="#CBCBCB"/>
<path d="M262.21 241.715C273.012 243.009 286.673 244.999 297.499 246.726C308.243 248.506 316.383 249.849 316.383 249.849L315.183 256.908C315.183 256.908 306.545 255.413 295.098 253.601C283.678 251.789 269.342 249.712 258.458 248.499C248.965 247.444 244.83 251.171 243.424 249.471C241.668 247.364 248.585 240.198 262.21 241.715Z" fill="white"/>
<path d="M212.863 280.293L212.68 283.156C212.68 283.156 214.395 283.263 216.989 283.417C219.568 283.638 223.012 283.92 226.456 284.202C229.887 284.497 233.331 284.778 235.91 285C237.194 285.103 238.274 285.219 239.03 285.306C239.786 285.392 240.205 285.436 240.205 285.436C241.546 277.54 247.292 271.446 254.725 269.567C254.779 269.54 254.847 269.554 254.901 269.528C255.903 269.292 256.918 269.123 257.959 269.036L258.472 269.013C259.54 268.953 260.635 268.975 261.715 269.117C261.715 269.117 274.42 270.709 286.92 272.664C299.447 274.592 311.811 276.709 311.811 276.709L312.29 273.874C312.29 273.874 299.225 271.618 285.969 269.603C279.341 268.596 272.672 267.629 267.65 266.971C262.614 266.327 259.252 265.91 259.252 265.91C258.144 265.794 257.063 265.787 255.982 265.833L255.468 265.856C254.427 265.943 253.398 266.125 252.397 266.361C252.342 266.388 252.275 266.374 252.221 266.4C249.12 267.175 246.285 268.682 243.959 270.76C242.096 272.409 240.301 273.909 238.508 275.194C236.701 276.518 234.882 277.668 233.011 278.573C229.254 280.37 225.208 281.22 220.346 280.806L219.292 280.717C217.766 280.585 216.42 279.845 215.482 278.757C214.544 277.67 214 276.193 214.12 274.626C213.593 276.46 213.147 278.349 212.863 280.293Z" fill="#CBCBCB"/>
<path d="M237.423 285.119L220.122 283.656C224.336 284.011 228.516 283.514 232.592 282.259C234.868 281.573 237.776 283.108 237.423 285.119Z" fill="#8A8A8A"/>
<path d="M264.599 320.802C264.742 319.803 264.114 318.785 262.971 317.898C262.407 317.462 264.382 317.152 265.53 317.309C268.635 317.736 278.166 319.103 286.98 320.531C295.808 322 303.866 323.315 303.866 323.315L302.187 333.209C302.187 333.209 296.207 332.206 289.445 331.09C282.696 329.987 275.19 328.825 272.018 328.383C252.78 325.636 256.519 324.447 256.941 324.004C261.035 324.074 264.328 322.814 264.599 320.802Z" fill="white"/>
<path d="M255.196 316.761C260.946 317.722 261.214 319.791 252.831 318.555C250.145 318.198 243.822 316.003 242.215 314.073C242.215 314.073 246.274 313.399 249.631 312.613C246.287 313.386 251.929 316.224 255.196 316.761Z" fill="#8A8A8A"/>
<path d="M258.523 260.054C258.523 260.054 259.401 260.155 260.913 260.328C262.426 260.528 264.599 260.8 267.205 261.13C272.39 261.816 279.302 262.785 286.132 263.834C299.82 265.906 313.25 268.232 313.25 268.232L312.77 271.067C312.77 271.067 299.354 268.754 285.693 266.682C278.876 265.647 271.991 264.678 266.82 264.005C264.227 263.662 262.067 263.404 260.555 263.204C259.043 263.031 258.178 262.943 258.178 262.943C257.395 262.856 256.833 262.15 256.919 261.366C257.006 260.529 257.74 259.967 258.523 260.054Z" fill="#CBCBCB"/>
<path d="M267.345 320.457C267.345 320.457 276.296 321.724 285.299 323.154C294.343 324.652 303.373 326.136 303.373 326.136L302.893 328.97C302.893 328.97 293.863 327.486 284.846 325.989C275.856 324.546 266.946 323.292 266.946 323.292C266.217 323.179 265.709 322.472 265.823 321.689C265.936 320.906 266.602 320.357 267.345 320.457Z" fill="#CBCBCB"/>
<path d="M98.2286 311.494C98.2286 311.494 94.2195 310.857 90.8488 309.779C88.8686 310.764 86.6886 311.357 84.39 311.529C84.39 311.529 83.6329 311.578 82.3078 311.677C80.9827 311.775 79.0899 311.897 76.8313 312.137C73.9644 312.414 70.4754 312.74 66.7971 313.092C65.3771 313.23 63.9301 313.369 62.4697 313.493C70.1087 312.994 75.2451 314.72 77.4524 317.831C78.1962 317.769 78.8995 317.693 79.5891 317.63C84.3621 317.273 87.5262 317.025 87.5262 317.025C91.7583 316.718 95.5031 314.637 98.2286 311.494Z" fill="#CBCBCB"/>
<path d="M117.944 270.432C119.837 268.378 117.27 260.9 111.331 254.303C105.418 247.706 95.9758 241.584 84.6849 242.516C74.0442 243.237 59.6961 244.606 48.0381 245.846C42.6415 246.47 37.8672 247.016 34.2425 247.423C36.4631 250.574 36.8121 254.658 36.8777 258.672C40.2589 258.291 44.4653 257.794 49.1584 257.274C60.6677 256.046 74.8671 254.689 85.5618 253.969C97.1095 253.025 104.573 258.173 109.404 262.857C114.208 267.567 116.487 272.03 117.944 270.432Z" fill="#404040"/>
<path d="M105.742 311.521L103.268 311.652C101.538 311.748 99.8626 311.655 98.2015 311.494C95.5031 314.637 91.7446 316.731 87.4719 317.052C87.4719 317.052 84.2944 317.286 79.5349 317.657C78.8452 317.719 78.1419 317.795 77.3982 317.858C79.445 320.751 78.9559 324.856 75.4895 329.561C75.6652 329.548 75.8816 329.523 76.044 329.497C80.2634 329.068 83.0622 328.885 83.0622 328.885C93.3655 328.095 101.822 321.02 105.742 311.521Z" fill="#404040"/>
<path d="M120.085 320.247C120.386 319.816 120.699 319.373 121 318.942C121.137 318.727 121.273 318.512 121.41 318.297C122.381 316.75 123.297 315.175 124.107 313.519C124.107 313.519 120.66 313.642 117.213 313.766C113.779 313.958 110.332 314.136 110.332 314.136C108.533 314.244 106.904 315.287 106.027 316.956C101.725 325.06 93.9262 330.923 84.6504 331.64C84.6504 331.64 83.9338 331.703 82.6763 331.788C81.4189 331.874 79.607 332.023 77.4567 332.237C76.0774 332.362 74.5087 332.513 72.8993 332.677C72.8993 332.677 72.8993 332.677 72.8857 332.691C69.4683 336.22 69.5145 341.058 79.1793 340.736C79.2199 340.723 79.2604 340.737 79.301 340.724C80.3694 340.61 81.3429 340.536 82.2354 340.461C82.8034 340.411 83.3306 340.374 83.8039 340.337C84.1014 340.312 84.3853 340.301 84.6287 340.275C84.8181 340.25 84.9802 340.251 85.129 340.239C86.0755 340.164 86.6435 340.114 86.6435 340.114C87.7251 340.041 88.7801 339.913 89.8489 339.745C90.0383 339.72 90.2143 339.681 90.3902 339.641C91.2156 339.499 92.0546 339.342 92.8668 339.159C93.2863 339.068 93.6791 338.949 94.0853 338.844C94.654 338.686 95.2362 338.541 95.7915 338.369C96.3332 338.211 96.8617 338.012 97.3901 337.813C97.8101 337.668 98.2301 337.522 98.6367 337.363C99.2464 337.138 99.8429 336.872 100.439 336.606C100.738 336.473 101.022 336.353 101.321 336.22C101.931 335.941 102.528 335.648 103.111 335.341C103.45 335.168 103.775 335.008 104.101 334.821C104.603 334.541 105.119 334.247 105.607 333.954C106.001 333.727 106.381 333.486 106.761 333.246C107.25 332.925 107.739 332.604 108.214 332.27C108.527 332.042 108.866 331.815 109.165 331.574C109.695 331.186 110.225 330.77 110.742 330.342C110.986 330.154 111.218 329.953 111.449 329.752C111.993 329.297 112.523 328.828 113.04 328.345C113.271 328.144 113.503 327.916 113.72 327.701C114.21 327.218 114.7 326.735 115.177 326.238C115.449 325.943 115.722 325.648 115.994 325.352C116.376 324.923 116.784 324.493 117.152 324.05C117.575 323.553 117.984 323.042 118.366 322.532C118.584 322.263 118.789 322.008 118.993 321.725C119.402 321.242 119.744 320.744 120.085 320.247Z" fill="#CBCBCB"/>
<path d="M100.407 249.319C101.275 248.811 100.986 245.796 98.2493 243.019C95.5126 240.215 90.3139 237.773 81.4573 238.452C78.7936 238.662 75.9406 238.872 72.966 239.093C70.0179 239.369 66.9752 239.658 63.9055 239.947C57.7794 240.538 51.5996 241.075 46.1082 241.738C40.6169 242.374 35.7885 242.92 32.3396 243.314C31.2846 243.442 30.3783 243.557 29.5938 243.659C33.9441 245.704 35.6762 249.122 36.3785 252.938C39.3946 252.595 43.0599 252.176 47.0903 251.718C52.5007 251.054 58.6264 250.517 64.7118 249.94C67.7545 249.651 70.7973 249.362 73.7453 249.086C76.6929 248.864 79.5595 248.641 82.2367 248.444C95.5283 247.419 98.0996 250.653 100.407 249.319Z" fill="#CBCBCB"/>
<path d="M81.4573 238.452C78.7936 238.662 75.9406 238.872 72.9659 239.093C70.0179 239.369 66.9752 239.658 63.9054 239.947C57.7794 240.538 51.5996 241.075 46.1082 241.738C40.6169 242.374 35.7885 242.92 32.3396 243.314C31.2846 243.442 30.3783 243.557 29.5938 243.659C32.8397 245.183 34.6475 247.48 35.6284 250.135C39.0773 249.741 43.3782 249.259 48.1932 248.699C59.7971 247.458 74.1046 246.102 84.8806 245.355C94.2917 244.612 98.2225 248.6 99.6802 246.975C101.492 245.002 94.9115 237.373 81.4573 238.452Z" fill="white"/>
<path d="M128.924 278.931C128.695 276.983 128.33 275.088 127.884 273.22C127.94 274.802 127.335 276.257 126.368 277.318C125.401 278.378 124.031 279.084 122.503 279.141L121.462 279.174C111.743 279.496 105.423 275.234 98.3111 268.183C96.0703 265.964 93.3385 264.363 90.2907 263.476C90.2368 263.448 90.1692 263.462 90.1153 263.434C89.1307 263.17 88.1323 262.947 87.0926 262.818L86.5795 262.76C85.5261 262.671 84.4452 262.636 83.3365 262.71C83.3365 262.71 79.9833 262.956 74.9533 263.352C69.9362 263.816 63.2422 264.457 56.5618 265.084C49.881 265.766 43.2263 266.583 38.2087 267.128C37.8706 267.166 37.5731 267.191 37.262 267.229C37.4439 268.23 37.7074 269.178 38.1203 270.005C39.865 269.815 41.8261 269.6 43.9089 269.371C47.4929 268.978 51.4693 268.521 55.4457 268.063C59.4215 267.686 63.3973 267.309 66.981 266.97C69.0906 266.769 71.0785 266.581 72.823 266.418C75.1897 266.178 77.1636 266.057 78.5563 265.945C78.6374 265.946 78.705 265.933 78.7861 265.934C80.0031 265.834 80.7332 265.785 80.7332 265.785C80.909 265.773 81.0712 265.774 81.2333 265.776C83.4775 265.657 85.6514 265.902 87.701 266.538L87.6874 266.552C94.9697 268.658 100.437 275.076 101.461 283.03C101.461 283.03 108.342 282.661 115.237 282.278C122.131 282.03 129.025 281.783 129.025 281.783L128.924 278.931Z" fill="#CBCBCB"/>
<path d="M104.219 282.888C104.219 282.888 108.545 282.649 112.885 282.423C117.211 282.157 121.563 282.053 121.563 282.053C117.346 282.158 113.188 281.561 109.171 280.18C106.906 279.407 103.963 280.859 104.219 282.888Z" fill="#8A8A8A"/>
<path d="M85.0499 313.724C79.2207 314.371 78.8408 316.463 87.3472 315.619C90.0654 315.354 96.5393 313.374 98.2286 311.494C98.2286 311.494 94.1803 310.681 90.8488 309.779C94.1532 310.681 88.3635 313.356 85.0499 313.724Z" fill="#8A8A8A"/>
<path d="M75.8934 260.413C81.072 260.031 84.5199 259.772 84.5199 259.772C85.3041 259.724 85.8767 259.025 85.8283 258.241C85.7665 257.443 85.0815 256.857 84.3108 256.919C84.3108 256.919 80.8493 257.191 75.6707 257.573C70.4913 258.063 63.581 258.702 56.6978 259.342C49.8008 260.022 42.9431 260.878 37.7631 261.448C37.452 261.487 37.1816 261.512 36.8975 261.55C36.9039 262.537 36.9239 263.51 36.9713 264.429C37.3501 264.378 37.7152 264.34 38.1074 264.302C43.2603 263.731 50.1181 262.875 56.9744 262.209C63.8442 261.555 70.7275 260.916 75.8934 260.413Z" fill="#CBCBCB"/>
<path d="M249.631 312.586C246.232 313.548 242.228 314.032 242.228 314.032C242.228 314.032 249.21 312.866 251.987 308.251C255.05 303.165 254.463 302.134 255.307 301.248C256.927 299.733 258.013 310.227 249.631 312.586Z" fill="#404040"/>
<path d="M170.839 281.463L170.567 298.664C170.567 298.664 171.783 298.673 173.904 298.701C176.026 298.703 179.052 298.806 182.673 298.94C186.307 299.061 190.536 299.213 195.076 299.381C199.615 299.576 204.437 299.922 209.26 300.186C211.678 300.325 214.082 300.478 216.473 300.617C218.85 300.823 221.186 301.015 223.442 301.207C227.953 301.591 232.167 301.946 235.8 302.256C242.997 303.051 247.817 303.586 247.817 303.586C252.003 304.049 255.171 299.504 253.471 295.437C251.226 290.083 246.295 286.115 240.218 285.449C240.218 285.449 239.138 285.334 237.247 285.131C235.343 284.968 232.655 284.746 229.401 284.466C226.146 284.186 222.364 283.861 218.312 283.535C214.247 283.276 209.91 283.015 205.574 282.754C196.903 282.151 188.228 281.98 181.716 281.717C178.46 281.572 175.758 281.525 173.852 281.525C171.934 281.484 170.839 281.463 170.839 281.463Z" fill="#404040"/>
<path d="M253.688 280.357C248.014 281.897 242.452 281.101 240.191 285.422C241.024 280.55 243.527 276.392 247.048 273.458C255.485 274.721 258.928 278.949 253.688 280.357Z" fill="#404040"/>
<path d="M250.009 286.344C256.333 292.161 258.979 298.058 259.147 302.938C259.191 304.317 258.739 305.138 259.079 304.829C261.691 302.47 263.698 299.606 264.802 296.397C265.216 295.238 265.508 294.038 265.68 292.768C265.851 291.499 265.887 290.256 265.801 289.08C265.508 284.726 263.864 280.336 260.59 277.042C258.122 274.538 255.222 273.774 257.619 276.831C259.935 279.808 259.568 282.048 253.697 282.844C247.826 283.585 246.559 283.144 250.009 286.344ZM257.71 290.373C261.139 289.006 262.637 287.395 263.647 284.227C263.965 283.242 265.219 291.022 264.458 293.489C263.683 296.024 262.092 297.378 260.296 297.243C258.797 297.138 256.26 290.971 257.71 290.373Z" fill="#CBCBCB"/>
<path d="M90.8217 309.779C94.1925 310.857 98.2151 311.481 98.2151 311.481C98.2151 311.481 91.2386 310.065 88.6644 305.357C85.8234 300.161 86.4658 299.152 85.6617 298.228C84.1056 296.622 82.5029 307.11 90.8217 309.779Z" fill="#404040"/>
<path d="M218.701 263.402C218.181 264.29 217.742 265.233 217.289 266.189C217.289 266.189 211.521 265.836 202.862 265.328C198.54 265.027 193.487 264.882 188.069 264.694C182.651 264.507 176.882 264.262 171.112 264.261C148.02 263.784 124.999 264.713 124.999 264.713C124.56 263.75 124.175 262.788 123.682 261.879C123.682 261.879 125.169 261.835 127.764 261.746C130.359 261.684 134.063 261.494 138.51 261.432C142.97 261.383 148.146 261.325 153.714 261.257C159.283 261.162 165.227 261.34 171.16 261.37C177.106 261.386 183.037 261.631 188.617 261.82C194.197 262.009 199.385 262.181 203.842 262.484C212.771 263.048 218.701 263.402 218.701 263.402Z" fill="#8A8A8A"/>
<path d="M218.701 263.402C218.441 263.846 218.235 264.317 217.975 264.788L217.275 266.175L213.993 265.976C214.358 265.992 214.725 265.711 214.754 265.306C214.784 264.901 214.462 264.574 214.098 264.558C214.098 264.558 208.735 264.235 200.671 263.758C196.632 263.499 191.943 263.425 186.904 263.213C181.864 263.028 176.487 262.827 171.136 262.816C149.652 262.363 128.227 263.168 128.227 263.168C127.862 263.179 127.535 263.501 127.532 263.907C127.543 264.299 127.905 264.612 128.27 264.601L124.999 264.713L124.361 263.303C124.121 262.814 123.922 262.34 123.695 261.892C123.695 261.892 125.182 261.849 127.777 261.76C130.372 261.697 134.077 261.508 138.523 261.445C142.983 261.396 148.159 261.339 153.728 261.271C159.296 261.176 165.241 261.354 171.173 261.383C177.119 261.399 183.05 261.645 188.63 261.834C194.21 262.022 199.398 262.195 203.855 262.497C212.771 263.048 218.701 263.402 218.701 263.402Z" fill="#CBCBCB"/>
<path d="M212.863 280.293C212.721 281.238 212.538 282.169 212.45 283.141C212.45 283.141 207.263 282.833 199.455 282.372C195.565 282.127 190.998 282.04 186.121 281.857C181.243 281.673 176.042 281.487 170.839 281.463C165.637 281.412 160.435 281.307 155.556 281.312C150.677 281.371 146.136 281.42 142.23 281.459C138.325 281.471 135.081 281.556 132.796 281.661C130.512 281.739 129.214 281.784 129.214 281.784C129.167 280.811 129.012 279.864 128.897 278.93C128.897 278.93 130.208 278.899 132.506 278.808C134.804 278.716 138.075 278.632 142.021 278.606C145.954 278.567 150.549 278.519 155.469 278.446C160.388 278.428 165.63 278.547 170.887 278.598C176.13 278.609 181.386 278.795 186.304 278.993C191.221 279.191 195.815 279.278 199.746 279.509C207.621 279.985 212.863 280.293 212.863 280.293Z" fill="#8A8A8A"/>
<path d="M214.106 274.612C213.58 276.446 213.147 278.349 212.863 280.293C212.863 280.293 207.621 279.985 199.76 279.522C195.829 279.264 191.235 279.204 186.317 279.007C181.399 278.836 176.144 278.622 170.9 278.612C165.657 278.574 160.415 278.455 155.482 278.46C150.563 278.506 145.981 278.567 142.035 278.62C138.102 278.632 134.817 278.73 132.519 278.821C130.235 278.9 128.91 278.944 128.91 278.944C128.681 276.996 128.316 275.102 127.87 273.234C127.87 273.234 149.417 272.416 170.982 272.869C176.388 272.881 181.765 273.082 186.818 273.28C191.87 273.479 196.586 273.553 200.625 273.839C208.717 274.29 214.106 274.612 214.106 274.612Z" fill="#404040"/>
<path d="M215.005 271.794C214.688 272.725 214.37 273.655 214.106 274.612C214.106 274.612 208.717 274.29 200.625 273.812C196.587 273.526 191.857 273.465 186.818 273.253C181.752 273.068 176.374 272.867 170.983 272.842C149.418 272.389 127.87 273.207 127.87 273.207C127.648 272.246 127.357 271.298 127.08 270.363C127.08 270.363 149.033 269.521 171.03 269.977C176.517 269.99 182.015 270.205 187.19 270.391C192.337 270.604 197.148 270.666 201.281 270.966C209.507 271.471 215.005 271.794 215.005 271.794Z" fill="#CBCBCB"/>
<path d="M217.289 266.189C216.397 267.98 215.667 269.88 215.005 271.794C215.005 271.794 209.507 271.471 201.267 270.979C197.147 270.693 192.337 270.604 187.176 270.404C182.029 270.219 176.53 270.003 171.017 269.991C149.019 269.535 127.066 270.377 127.066 270.377C126.472 268.44 125.81 266.516 124.986 264.699C124.986 264.699 148.02 263.757 171.099 264.248C176.869 264.249 182.638 264.493 188.055 264.681C193.46 264.882 198.513 265 202.849 265.315C211.507 265.85 217.289 266.189 217.289 266.189Z" fill="white"/>
<path d="M234.758 313.668C234.758 313.668 226.735 312.988 214.702 311.996C208.663 311.669 201.626 311.172 194.088 310.82C190.305 310.685 186.414 310.549 182.442 310.412C180.469 310.344 178.47 310.275 176.443 310.207C174.43 310.179 172.416 310.151 170.389 310.136C166.349 310.093 162.322 310.037 158.336 309.995C154.363 309.994 150.443 310.073 146.659 310.1C139.091 310.127 132.008 310.373 125.939 310.586C122.897 310.686 120.126 310.787 117.666 310.878C115.206 311.022 113.056 311.128 111.285 311.237C107.743 311.428 105.729 311.535 105.729 311.535C95.7923 312.017 88.9034 304.075 95.9754 303.491C95.9754 303.491 98.3012 303.292 102.384 303.105C106.467 302.891 112.28 302.582 119.269 302.213C133.26 301.733 151.9 301.124 170.532 301.542C175.195 301.562 179.842 301.704 184.422 301.886C189.002 302.067 193.502 302.167 197.865 302.401C202.228 302.663 206.416 302.909 210.414 303.154C212.413 303.277 214.345 303.385 216.236 303.507C218.113 303.669 219.923 303.817 221.652 303.965C235.563 305.038 244.785 306.172 244.785 306.172C251.794 306.885 244.575 314.752 234.758 313.668Z" fill="#CBCBCB"/>
<path d="M170.839 281.463L170.567 298.664C170.567 298.664 165.729 298.602 158.459 298.523C154.824 298.51 150.58 298.587 146.039 298.636C141.498 298.684 136.646 298.717 131.807 298.925C126.954 299.093 122.115 299.247 117.573 299.404C113.031 299.641 108.786 299.881 105.163 300.071C97.8895 300.424 93.0486 300.821 93.0486 300.821C88.8299 301.142 85.8635 296.472 87.7437 292.472C90.2275 287.233 95.31 283.324 101.42 283.043C101.42 283.043 105.746 282.804 112.249 282.459C118.739 282.046 127.429 281.906 136.108 281.564C144.784 281.464 153.475 281.297 159.988 281.344C166.502 281.418 170.839 281.463 170.839 281.463Z" fill="#404040"/>
<path d="M244.872 296.024C244.872 296.024 242.563 295.778 238.525 295.329C234.488 294.881 228.693 294.475 221.752 293.857C218.281 293.521 214.526 293.278 210.527 293.06C206.542 292.829 202.341 292.569 197.992 292.321C193.641 292.154 189.142 292 184.562 291.819C182.279 291.735 179.969 291.65 177.659 291.566C175.348 291.536 173.01 291.506 170.7 291.476C166.051 291.415 161.403 291.381 156.835 291.321C152.267 291.37 147.753 291.418 143.401 291.468C141.226 291.493 139.077 291.518 136.982 291.543C134.887 291.623 132.832 291.689 130.831 291.756C126.83 291.889 123.059 292.01 119.572 292.12C112.597 292.394 106.796 292.799 102.727 292.999C98.6576 293.226 96.3322 293.372 96.3322 293.372C94.1417 293.545 92.6593 291.089 93.7682 289.11C95.2475 286.364 97.9222 284.64 100.937 284.486C100.937 284.486 103.127 284.366 106.94 284.151C110.752 283.962 116.214 283.569 122.77 283.413C129.325 283.204 136.963 282.867 145.153 282.845C149.248 282.807 153.492 282.757 157.789 282.706C162.1 282.751 166.465 282.796 170.843 282.855C173.018 282.884 175.221 282.913 177.396 282.942C179.572 283.026 181.733 283.095 183.895 283.165C188.205 283.318 192.434 283.47 196.514 283.607C204.7 284.072 212.346 284.505 218.883 284.958C225.42 285.518 230.863 285.977 234.685 286.288C236.589 286.45 238.088 286.583 239.101 286.712C240.127 286.827 240.667 286.885 240.667 286.885C243.679 287.218 246.287 289.074 247.645 291.841C248.644 293.889 247.046 296.269 244.872 296.024Z" fill="#CBCBCB"/>
<path d="M239.707 292.581C239.707 292.581 237.574 292.296 233.806 292.012C230.038 291.701 224.662 291.229 218.207 290.696C211.737 290.258 204.199 289.825 196.107 289.375C192.054 289.238 187.879 289.086 183.624 288.933C181.503 288.851 179.354 288.795 177.206 288.712C175.058 288.683 172.895 288.667 170.734 288.624C166.41 288.566 162.099 288.522 157.842 288.477C153.585 288.514 149.395 288.565 145.355 288.604C137.246 288.626 129.689 288.964 123.215 289.147C116.74 289.303 111.346 289.683 107.56 289.872C103.789 290.074 101.625 290.194 101.625 290.194C91.6076 290.757 97.8949 284.667 100.923 284.499C100.923 284.499 103.113 284.38 106.926 284.164C110.738 283.975 116.201 283.582 122.756 283.427C129.312 283.217 136.95 282.881 145.139 282.859C149.234 282.82 153.478 282.77 157.776 282.72C162.086 282.765 166.451 282.809 170.829 282.868C173.005 282.897 175.207 282.927 177.383 282.956C179.558 283.039 181.72 283.109 183.881 283.178C188.191 283.331 192.42 283.483 196.5 283.621C204.686 284.085 212.332 284.519 218.87 284.971C225.406 285.532 230.849 285.99 234.671 286.301C236.576 286.464 238.075 286.596 239.087 286.725C240.114 286.841 240.654 286.899 240.654 286.899C243.678 287.245 249.7 293.68 239.707 292.581Z" fill="white"/>
<path d="M88.2172 277.407C91.0083 278.279 93.7901 278.569 96.1371 279.181C98.4974 279.833 100.409 280.82 101.447 283.044C100.807 278.147 98.4866 273.833 95.0898 270.741C86.6638 271.693 83.0531 275.789 88.2172 277.407Z" fill="#404040"/>
<path d="M88.0916 279.839C82.2743 278.838 82.0202 276.592 84.4466 273.691C86.9683 270.695 84.0712 271.404 81.4865 273.764C78.0854 276.902 76.2168 281.159 75.726 285.507C75.5689 286.681 75.5599 287.925 75.6723 289.209C75.7847 290.494 76.0191 291.712 76.3621 292.876C77.3117 296.127 79.1821 299.113 81.6912 301.604C82.0132 301.931 81.6138 301.09 81.7183 299.726C82.1181 294.877 85.0515 289.142 91.6058 283.513C95.1821 280.444 93.9089 280.84 88.0916 279.839ZM80.8405 294.017C79.0428 294.072 77.5128 292.601 76.842 290.042C76.1845 287.524 77.8209 279.846 78.0976 280.835C78.9529 284.044 80.3732 285.729 83.7406 287.267C85.1683 287.926 82.3544 293.974 80.8405 294.017Z" fill="#CBCBCB"/>
<path d="M239.046 277.427C236.837 280.168 236.047 281 233.228 282.142L233.242 282.156C235.379 281.874 237.747 283.296 237.437 285.132C237.437 285.132 238.477 283.248 239.52 281.093C241.194 277.591 240.846 275.197 239.046 277.427Z" fill="white"/>
<path d="M245.271 285.594C248.577 286.253 246.626 285.198 246.689 283.928C246.738 282.672 245.484 282.379 243.583 283.582C241.709 284.812 243.517 285.257 245.271 285.594Z" fill="white"/>
<path d="M98.4624 269.697C93.4007 265.107 89.3549 263.942 90.1916 262.232C91.0281 260.549 96.3109 260.709 101.378 266.421C106.432 272.093 106.296 275.903 104.603 276.526C102.909 277.148 102.974 273.784 98.4624 269.697Z" fill="white"/>
<path d="M79.1051 298.545C82.4361 303.258 83.9138 304.485 83.328 301.386C82.7556 298.301 85.2804 292.995 82.9573 294.694C80.6476 296.407 78.5154 295.987 77.1494 294.274C75.7965 292.602 77.1386 295.761 79.1051 298.545Z" fill="white"/>
<path d="M562.487 339.613C556.257 341.487 549.798 343.237 544.83 344.431C539.875 345.639 536.465 346.29 536.465 346.29C533.798 346.852 531.19 346.874 528.734 346.45C536.674 341.656 540.851 334.024 540.541 326.305C540.511 324.859 540.305 323.452 539.964 322.017C539.61 320.596 539.146 319.227 538.521 317.939C535.26 310.902 528.715 305.976 521.785 303.656C523.442 302.533 525.312 301.762 527.289 301.344C527.289 301.344 529.968 300.823 534.07 299.839C538.172 298.855 543.71 297.368 549.357 295.665C552.594 294.702 555.872 293.671 558.919 292.707L536.18 269.637C532.821 270.586 529.748 271.388 527.338 271.965C523.764 272.831 521.545 273.248 521.545 273.248C517.728 274.031 514.108 275.667 510.754 277.981C504.887 281.939 499.587 287.995 494.856 295.583C490.112 303.157 486.37 312.32 485.486 322.476C485.486 322.476 480.407 322.196 472.777 321.398C465.147 320.626 454.955 319.188 444.736 317.641C424.313 314.318 403.877 311.009 403.877 311.009C407.281 284.951 390.427 260.91 365.671 256.894C365.671 256.894 362.648 256.412 358.099 255.663C353.537 254.874 347.463 253.803 341.376 252.745C328.999 250.588 316.609 248.418 316.609 248.418L311.784 276.681C311.784 276.681 324.093 278.824 336.389 280.981C342.489 282.052 348.59 283.123 353.165 283.926C357.741 284.675 360.778 285.17 360.778 285.17C363.113 285.552 365.256 286.338 367.167 287.486C359.205 289.645 352.68 295.031 349.871 302.281C349.334 303.615 348.945 305.018 348.692 306.448C348.438 307.879 348.333 309.324 348.391 310.744C348.578 318.475 352.973 325.629 359.872 330.205C357.653 330.676 355.328 330.74 352.979 330.372C352.979 330.372 349.902 329.863 345.272 329.114C340.669 328.31 334.542 327.239 328.414 326.168C316.24 324.053 304.079 321.925 304.079 321.925L299.253 350.188C299.253 350.188 311.347 352.302 323.426 354.403C329.581 355.474 335.736 356.546 340.352 357.363C345.009 358.113 348.113 358.622 348.113 358.622C366.606 361.62 384.41 353.275 394.529 338.577C394.529 338.577 417.476 342.31 440.437 346.03C451.924 347.775 463.967 349.43 473.231 350.307C482.536 351.172 488.98 351.394 488.98 351.394C491.669 357.062 495.687 362.199 501.198 366.239C506.656 370.279 513.377 373.287 520.881 374.692C524.174 375.31 527.591 375.619 531.118 375.577L569.909 337.342C567.566 338.068 565.046 338.834 562.487 339.613Z" fill="#8A8A8A"/>
<path d="M562.487 339.612C556.257 341.486 549.798 343.237 544.83 344.431C539.875 345.639 536.465 346.29 536.465 346.29C533.798 346.852 531.19 346.874 528.734 346.45C525.206 348.398 520.709 349.879 520.709 349.879C524.42 352.392 529.358 353.509 534.433 352.532C534.433 352.532 535.381 352.35 537.045 352.024C538.683 351.698 540.943 351.214 543.664 350.599C548.645 349.445 554.995 347.802 561.211 345.968L569.99 337.315C567.566 338.068 565.046 338.834 562.487 339.612Z" fill="#CBCBCB"/>
<path d="M524.764 278.447C522.477 278.957 520.663 279.295 518.783 279.62C516.009 280.1 513.554 281.258 511.286 282.904C506.124 286.596 501.849 292.795 498.943 298.504C496.064 304.213 494.702 309.501 496.176 311.187C497.275 312.493 498.795 309.652 501.323 305.846C503.864 301.972 507.318 297.173 512.462 294.034C514.797 292.591 517.481 291.503 520.715 290.945C524.679 290.257 529.606 289.185 534.832 287.844C539.814 286.555 545.028 285.039 549.904 283.533L540.795 274.292C537.775 275.175 534.769 276.019 531.858 276.768C529.38 277.385 526.957 277.976 524.764 278.447Z" fill="#404040"/>
<path d="M543.637 350.599C540.929 351.228 538.669 351.711 537.018 352.024C535.353 352.35 534.406 352.532 534.406 352.532C529.331 353.509 524.38 352.379 520.695 349.866C519.95 350.063 519.179 350.233 518.367 350.416C517.244 350.638 516.067 350.805 514.85 350.905C514.85 350.905 514.133 350.967 513.403 351.043C512.673 351.092 511.942 351.14 511.942 351.14C513.787 353.992 516.202 356.387 519.188 358.382C522.348 360.499 526.094 362.04 530.184 362.759C532.235 363.125 534.356 363.289 536.545 363.251C538.762 363.185 540.993 362.945 543.105 362.473C543.105 362.473 543.741 362.329 544.824 362.094L561.17 345.982C554.955 347.788 548.604 349.459 543.637 350.599Z" fill="#404040"/>
<path d="M519.645 362.521C516.778 360.892 514.359 358.928 512.376 356.563C511.09 355.013 509.015 354.214 506.879 354.28C506.879 354.28 502.756 354.453 498.648 354.45C496.608 354.422 494.581 354.407 493.054 354.383C491.554 354.331 490.554 354.297 490.554 354.297C496.145 364.27 507.21 372.093 520.922 374.652C524.215 375.27 527.645 375.565 531.159 375.536L541.068 365.77C533.219 367.2 525.526 365.901 519.645 362.521Z" fill="#CBCBCB"/>
<path d="M510.982 280.064C508.023 283.705 507.936 288.299 508.838 288.778C509.659 289.23 510.405 288.816 511.829 288.165C513.579 287.245 516.399 285.914 521.799 284.912C528.267 283.742 537.081 281.414 545.316 278.933L537.32 270.821C530.901 272.639 524.619 274.216 519.964 275.047C515.553 275.853 512.782 277.806 510.982 280.064Z" fill="#CBCBCB"/>
<path d="M511.007 280.28C508.949 282.765 508.267 285.477 509.071 286.401C509.607 287.027 510.368 286.546 511.576 285.784C513.165 284.701 515.487 283.11 519.249 282.461C521.184 282.11 523.092 281.759 525.433 281.249C527.694 280.765 530.158 280.161 532.649 279.53C536.033 278.663 539.568 277.648 543.035 276.619L537.32 270.821C530.901 272.639 524.619 274.216 519.964 275.047C515.769 275.828 512.848 277.982 511.007 280.28Z" fill="white"/>
<path d="M531.384 297.522C527.093 298.505 524.441 298.972 524.441 298.972C523.548 299.128 522.694 299.405 521.867 299.737L521.461 299.896C520.661 300.229 519.888 300.642 519.141 301.109C519.1 301.15 519.046 301.149 519.006 301.19C516.983 302.486 515.2 304.243 513.738 306.354C513.52 306.623 513.329 306.919 513.151 307.202C508.121 315.085 502.368 320.192 493.045 319.962L492.045 319.928C490.573 319.877 489.267 319.178 488.369 318.077C487.458 316.99 486.942 315.54 487.034 313.946C486.561 315.78 486.156 317.683 485.872 319.627L485.689 322.491C485.689 322.491 492.442 322.945 499.119 322.885C502.457 322.868 505.809 322.757 508.31 322.6C510.811 322.469 512.475 322.305 512.475 322.305C512.405 318.886 513.117 315.634 514.395 312.765C516.018 308.885 518.594 305.727 521.772 303.615C521.813 303.575 521.867 303.575 521.908 303.535C522.654 303.067 523.428 302.627 524.241 302.281L524.648 302.122C525.488 301.804 526.341 301.499 527.248 301.33C527.248 301.33 529.928 300.809 534.029 299.825C538.131 298.841 543.669 297.354 549.317 295.651C552.554 294.688 555.831 293.658 558.879 292.693L556.625 290.406C553.618 291.358 550.408 292.348 547.253 293.285C541.375 295.053 535.634 296.553 531.384 297.522Z" fill="#CBCBCB"/>
<path d="M509.824 322.529C509.824 322.529 505.633 322.824 501.416 322.874C497.213 322.939 492.984 322.814 492.984 322.814C497.092 322.897 501.125 322.088 504.813 320.331C506.86 319.44 509.785 320.475 509.824 322.529Z" fill="#8A8A8A"/>
<path d="M547.676 345.195C546.417 345.524 544.422 346.577 545.191 346.758C546.77 347.135 547.806 347.804 548.055 348.793C548.554 350.769 545.55 353.302 540.823 354.768C540.659 355.037 539.626 355.84 541.503 355.948C542.949 356.026 546.316 355.713 552.882 354.152L567.717 339.529C559.496 342.077 550.789 344.461 547.676 345.195Z" fill="white"/>
<path d="M536.326 348.6C539.695 348.043 541.56 348.165 541.474 348.732C541.322 349.284 539.315 350.243 534.213 351.139C530.979 351.751 522.995 351.436 520.695 349.893C520.695 349.893 525.207 348.236 528.72 346.464C525.18 348.182 532.375 349.301 536.326 348.6Z" fill="#8A8A8A"/>
<path d="M529.112 292.168C527 292.639 525.241 293.005 524.131 293.213C522.954 293.434 522.291 293.551 522.291 293.551C521.682 293.668 521.298 294.395 521.414 295.166C521.543 295.951 522.148 296.482 522.784 296.365C522.784 296.365 523.46 296.235 524.665 296.014C525.802 295.779 527.602 295.427 529.727 294.942C534.004 294 539.839 292.461 545.839 290.707C548.71 289.863 551.608 288.965 554.385 288.106L552.118 285.806C549.788 286.519 547.404 287.259 545.034 287.958C539.089 289.712 533.321 291.239 529.112 292.168Z" fill="#CBCBCB"/>
<path d="M556.943 345.694C553.273 346.681 550.822 347.353 550.822 347.353C550.01 347.563 549.504 348.357 549.701 349.129C549.899 349.9 550.72 350.352 551.546 350.128C551.546 350.128 554.01 349.471 557.707 348.457C558.126 348.338 558.587 348.206 559.047 348.074L563.348 343.835C561.032 344.534 558.825 345.181 556.943 345.694Z" fill="#CBCBCB"/>
<path d="M353.02 330.359C353.02 330.359 349.942 329.85 345.312 329.1C340.71 328.297 334.582 327.226 328.455 326.154C316.28 324.04 304.12 321.911 304.12 321.911L303.146 327.567C303.146 327.567 315.982 329.808 328.817 332.049C341.72 334.386 354.8 336.466 354.8 336.466C359.187 337.187 363.479 336.042 366.915 333.648C366.915 333.648 363.048 332.066 359.926 330.206C357.707 330.676 355.382 330.741 353.02 330.359Z" fill="#CBCBCB"/>
<path d="M370.097 263.426C365.13 262.606 359.272 261.645 353.292 260.669C347.259 259.612 341.118 258.527 335.585 257.541C324.355 255.596 315.676 254.087 315.676 254.087L313.744 265.384C313.744 265.384 322.328 266.879 333.463 268.81C338.983 269.783 345.124 270.867 351.171 271.938C357.191 272.927 363.089 273.902 368.165 274.723C390.018 278.272 391.71 300.326 395.175 297.743C399.632 294.369 391.181 266.848 370.097 263.426Z" fill="#404040"/>
<path d="M371.961 334.874C370.206 334.591 368.533 334.146 366.902 333.608C363.466 336.029 359.187 337.16 354.8 336.439C354.8 336.439 341.734 334.372 328.818 332.022C315.982 329.781 303.147 327.54 303.147 327.54L301.214 338.837C301.214 338.837 312.659 340.838 324.091 342.826C329.895 343.841 335.685 344.869 340.031 345.63C344.418 346.351 347.333 346.832 347.333 346.832C358.078 348.585 368.424 343.754 374.471 335.27L371.961 334.874Z" fill="#404040"/>
<path d="M378.54 338.854C376.691 338.557 374.821 339.219 373.554 340.656C367.382 347.679 357.962 351.49 348.243 349.906C348.243 349.906 345.233 349.411 340.711 348.689C336.23 347.9 330.251 346.844 324.286 345.801C312.503 343.756 300.733 341.698 300.733 341.698L299.294 350.175C299.294 350.175 311.387 352.289 323.467 354.39C329.622 355.461 335.776 356.533 340.392 357.35C345.049 358.099 348.154 358.608 348.154 358.608C365.539 361.436 382.294 354.233 392.646 341.158L378.54 338.854Z" fill="#CBCBCB"/>
<path d="M368.131 258.763C358.196 257.232 345.455 254.923 334.955 253.091C324.4 251.258 316.396 249.862 316.396 249.862L314.717 259.756C314.717 259.756 322.626 261.137 333.113 262.956C343.546 264.802 356.327 267.097 366.451 268.656C378.978 270.693 380.668 274.313 383.106 273.493C384.935 272.844 384.626 261.422 368.131 258.763Z" fill="#CBCBCB"/>
<path d="M368.131 258.763C358.196 257.232 345.455 254.923 334.955 253.091C324.4 251.258 316.396 249.862 316.396 249.862L315.197 256.922C315.197 256.922 323.781 258.416 334.97 260.348C340.49 261.32 346.631 262.405 352.664 263.462C358.657 264.451 364.569 265.413 369.631 266.247C378.459 267.689 381.223 272.344 382.935 271.059C385.027 269.479 380.617 260.785 368.131 258.763Z" fill="white"/>
<path d="M404.127 308.159L403.674 310.994L376.584 306.595C377.357 298.614 373.546 291.235 367.181 287.473C367.14 287.432 367.073 287.418 367.019 287.391C366.158 286.898 365.255 286.473 364.312 286.114L363.84 285.962C362.869 285.631 361.858 285.34 360.805 285.17C360.805 285.17 357.768 284.675 353.192 283.926C348.617 283.123 342.516 282.052 336.416 280.981C324.106 278.838 311.811 276.682 311.811 276.682L312.291 273.847C312.291 273.847 325.288 276.117 338.272 278.372C351.175 280.709 364.012 282.734 364.012 282.734C365.065 282.904 366.076 283.195 367.047 283.526L367.519 283.678C368.462 284.036 369.351 284.475 370.226 284.954C370.266 284.995 370.32 284.996 370.388 285.037C373.052 286.596 375.266 288.788 376.896 291.395C382.093 299.716 387.295 305.375 396.825 306.931L397.851 307.1C399.349 307.341 400.812 306.919 401.953 306.062C403.095 305.206 403.942 303.887 404.196 302.321C404.263 304.268 404.263 306.2 404.127 308.159Z" fill="#CBCBCB"/>
<path d="M379.297 307.034L396.331 309.805C392.201 309.127 388.266 307.639 384.673 305.437C382.682 304.207 379.501 305.008 379.297 307.034Z" fill="#8A8A8A"/>
<path d="M342.576 333.729C342.759 332.744 343.683 331.967 345.092 331.464C345.784 331.212 343.911 330.347 342.737 330.136C336.407 329.023 303.866 323.342 303.866 323.342L302.186 333.236C302.186 333.236 326.373 337.464 332.852 338.592C342.825 340.38 347.041 340.546 348.678 340.301C350.314 340.056 349.414 339.333 349.254 339.089C345.086 337.937 342.21 335.754 342.576 333.729Z" fill="white"/>
<path d="M353.152 332.644C347.144 331.884 346.224 333.81 354.986 335.022C357.794 335.42 364.77 335.038 366.916 333.621C366.916 333.621 363.036 331.863 359.927 330.179C363.036 331.863 356.581 333.074 353.152 332.644Z" fill="#8A8A8A"/>
<path d="M366.335 277.331C366.335 277.331 363.041 276.794 358.101 276.002C353.16 275.236 346.588 274.04 339.961 272.871C326.612 270.545 313.277 268.205 313.277 268.205L312.797 271.04C312.797 271.04 326.146 273.366 339.467 275.692C352.694 278.084 365.869 280.152 365.869 280.152C366.611 280.279 367.331 279.731 367.458 278.961C367.572 278.178 367.077 277.458 366.335 277.331Z" fill="#CBCBCB"/>
<path d="M339.963 332.548L303.386 326.149L302.906 328.984L339.47 335.369C340.225 335.51 340.945 334.988 341.086 334.205C341.213 333.409 340.705 332.675 339.963 332.548Z" fill="#CBCBCB"/>
<path d="M528.72 346.437C525.206 348.398 520.695 349.866 520.695 349.866C520.695 349.866 522.646 349.15 524.778 347.746C526.924 346.329 529.223 344.224 530.012 341.595C531.756 335.796 530.735 335.005 531.351 333.888C531.912 332.905 533.358 334.808 533.649 337.58C533.967 340.353 533.062 344.036 528.72 346.437Z" fill="#404040"/>
<path d="M444.736 317.668L442.181 334.677C454.1 336.48 466.277 338.243 478.811 339.279C485.078 339.784 491.386 340.113 497.846 340.133C504.305 340.152 510.78 339.861 517.204 339.191C519.558 338.938 521.898 338.644 524.238 338.296C528.879 337.586 530.674 332.248 527.779 328.875C524.617 325.123 520.201 322.767 515.447 322.354C514.502 322.266 513.543 322.246 512.556 322.333C512.556 322.333 508.363 322.762 502.051 322.892C495.753 323.009 487.268 322.786 478.787 321.995C470.292 321.271 461.813 320.129 455.427 319.232C449.002 318.294 444.736 317.668 444.736 317.668Z" fill="#404040"/>
<path d="M523.749 314.332C520.694 316.324 517.323 317.124 515.054 318.824C513.859 319.653 512.959 320.755 512.502 322.333C512.432 318.913 513.158 315.675 514.435 312.833C514.944 311.553 515.602 310.341 516.339 309.211C523.736 308.602 527.972 311.511 523.749 314.332Z" fill="#404040"/>
<path d="M521.971 321.049C529.334 325.089 534.031 329.637 535.836 334.19C536.353 335.478 536.185 336.396 536.417 335.978C538.278 332.857 539.208 329.444 539.097 326.038C539.079 324.822 538.912 323.591 538.61 322.332C538.322 321.086 537.912 319.908 537.406 318.85C535.596 314.891 532.595 311.355 528.772 309.22C525.96 307.591 523.298 307.559 526.2 309.877C529.022 312.087 529.519 314.333 524.435 316.689C519.323 318.963 517.946 318.764 521.971 321.049ZM530.35 322.799C533.151 320.414 533.963 318.379 533.798 315.081C533.737 314.067 537.567 320.919 537.737 323.488C537.907 326.138 536.854 327.981 535.053 328.468C533.496 328.876 529.127 323.817 530.35 322.799Z" fill="#CBCBCB"/>
<path d="M359.913 330.192C363.021 332.039 366.902 333.608 366.902 333.608C366.902 333.608 360.221 330.559 358.826 325.387C357.273 319.673 358.17 318.842 357.584 317.756C356.489 315.829 352.256 325.637 359.913 330.192Z" fill="#404040"/>
<path d="M491.021 302.691C490.595 303.593 490.224 304.55 489.838 305.52C489.838 305.52 488.555 305.443 486.313 305.319C484.057 305.181 480.842 304.942 476.912 304.548C469.053 303.789 458.387 302.334 447.304 300.646C425.195 297.054 403.085 293.462 403.085 293.462C402.862 292.447 402.653 291.418 402.39 290.443C402.39 290.443 425.067 294.12 447.757 297.811C459.124 299.542 470.005 301.026 477.987 301.772C485.887 302.518 491.021 302.691 491.021 302.691Z" fill="#8A8A8A"/>
<path d="M491.021 302.691C490.815 303.162 490.622 303.62 490.43 304.105L489.838 305.52L486.92 305.364C487.258 305.38 487.558 305.085 487.587 304.68C487.617 304.274 487.322 303.948 487.012 303.932C487.012 303.932 482.297 303.695 475.019 302.927C467.74 302.185 457.79 300.802 447.531 299.242C426.987 295.905 406.47 292.567 406.47 292.567C406.119 292.511 405.752 292.765 405.681 293.156C405.611 293.548 405.892 293.915 406.243 293.971L403.098 293.448L402.758 291.932C402.626 291.418 402.535 290.917 402.39 290.416C402.39 290.416 425.067 294.093 447.758 297.784C459.124 299.515 470.005 300.999 477.987 301.745C485.887 302.519 491.021 302.691 491.021 302.691Z" fill="#CBCBCB"/>
<path d="M485.871 319.654C485.729 320.599 485.574 321.53 485.486 322.503C485.486 322.503 480.407 322.223 472.777 321.425C465.147 320.653 454.955 319.215 444.736 317.668C424.313 314.345 403.877 311.036 403.877 311.036C404.005 310.077 404.053 309.118 404.114 308.172C404.114 308.172 424.631 311.51 445.148 314.847C455.421 316.394 465.614 317.832 473.216 318.603C480.819 319.374 485.871 319.654 485.871 319.654Z" fill="#8A8A8A"/>
<path d="M487.034 313.973C486.561 315.808 486.156 317.71 485.871 319.654C485.871 319.654 480.819 319.374 473.23 318.59C465.627 317.819 455.448 316.394 445.162 314.833C424.644 311.496 404.127 308.159 404.127 308.159C404.276 306.214 404.277 304.254 404.183 302.362C404.183 302.362 425.091 305.769 446 309.15C456.475 310.739 466.749 312.178 474.365 312.936C482.022 313.734 487.034 313.973 487.034 313.973Z" fill="#404040"/>
<path d="M487.838 311.141C487.548 312.071 487.271 313.015 487.034 313.973C487.034 313.973 482.022 313.734 474.392 312.936C466.776 312.178 456.475 310.739 446.027 309.15C425.118 305.743 404.21 302.362 404.21 302.362C404.176 301.375 404.075 300.402 403.988 299.414C403.988 299.414 425.234 302.865 446.453 306.315C457.09 307.933 467.472 309.372 475.142 310.13C482.826 310.929 487.838 311.141 487.838 311.141Z" fill="#CBCBCB"/>
<path d="M489.825 305.506C489.069 307.298 488.433 309.213 487.838 311.141C487.838 311.141 482.826 310.929 475.142 310.13C467.472 309.372 457.09 307.933 446.453 306.315C425.207 302.865 403.988 299.414 403.988 299.414C403.786 297.413 403.53 295.384 403.085 293.462C403.085 293.462 425.194 297.054 447.304 300.646C458.387 302.334 469.053 303.789 476.912 304.548C480.842 304.942 484.07 305.168 486.313 305.319C488.555 305.443 489.825 305.506 489.825 305.506Z" fill="white"/>
<path d="M511.983 351.127C511.983 351.127 511.402 351.163 510.28 351.223C509.171 351.296 507.549 351.392 505.454 351.445C501.317 351.604 495.276 351.655 488.427 351.349C474.606 350.831 456.987 348.528 440.477 345.99C407.474 340.63 374.485 335.284 374.485 335.284C364.321 333.63 359.403 324.121 366.557 325.281L439.879 337.188C452.095 339.073 464.636 340.907 477.575 342.027C484.057 342.588 490.623 342.932 497.312 342.967C504.055 343.002 510.801 342.713 517.495 342.018L521.634 341.534C527.83 340.633 525.611 346.604 518.305 349.673C516.475 350.403 514.336 350.982 511.983 351.127Z" fill="#CBCBCB"/>
<path d="M444.736 317.668L442.181 334.677L364.269 322.007C360.018 321.314 358.244 316.085 361.053 312.646C364.762 308.105 370.564 305.606 376.557 306.568L444.736 317.668Z" fill="#404040"/>
<path d="M519.299 331.706L516.432 332.037C503.827 333.379 491.072 333.097 478.66 332.048C466.208 330.986 453.964 329.208 441.855 327.351L369.222 315.543C367.048 315.189 366.163 312.467 367.702 310.788C369.773 308.479 372.78 307.392 375.736 307.887C375.736 307.887 410.116 313.473 444.496 319.058C461.707 321.71 478.895 323.874 491.785 324.21C504.66 324.641 513.195 323.689 513.195 323.689C513.992 323.627 514.776 323.66 515.545 323.814C517.624 324.153 519.575 325.289 521.022 326.975C522.564 328.676 521.598 331.426 519.299 331.706Z" fill="#CBCBCB"/>
<path d="M513.369 329.447C513.369 329.447 504.551 330.411 491.365 329.964C478.178 329.599 460.801 327.406 443.657 324.769C409.399 319.197 375.154 313.639 375.154 313.639C365.206 312.014 372.78 307.446 375.75 307.927C375.75 307.927 410.129 313.513 444.509 319.099C461.72 321.75 478.908 323.915 491.798 324.251C504.674 324.682 513.208 323.73 513.208 323.73C513.87 323.667 514.761 323.889 515.609 324.26C518.088 325.305 520.476 327.755 516.116 329.021C515.425 329.192 514.505 329.347 513.369 329.447Z" fill="white"/>
<path d="M365.131 298.134C370.069 301.129 375.564 301.831 376.584 306.595C377.052 301.68 375.788 296.995 373.261 293.233C365.038 292.241 360.583 295.372 365.131 298.134Z" fill="#404040"/>
<path d="M364.425 300.467C359.076 298.145 359.39 295.904 362.42 293.669C365.545 291.34 362.612 291.359 359.572 293.067C355.556 295.308 352.678 299.031 351.108 303.101C350.668 304.206 350.335 305.393 350.109 306.661C349.884 307.93 349.807 309.159 349.853 310.376C349.95 313.769 351.021 317.087 352.864 320.101C353.104 320.481 352.922 319.587 353.364 318.266C354.964 313.656 359.297 308.795 366.947 304.85C371.111 302.705 369.773 302.789 364.425 300.467ZM353.932 312.527C352.151 312.163 351.029 310.371 351.061 307.736C351.08 305.141 354.59 298.085 354.61 299.112C354.626 302.424 355.572 304.39 358.461 306.668C359.643 307.649 355.43 312.849 353.932 312.527Z" fill="#CBCBCB"/>
<path d="M510.057 314.68C508.508 317.736 507.879 318.678 505.395 320.16L505.409 320.173C507.386 319.647 509.824 320.678 509.838 322.543C509.838 322.543 510.528 320.521 511.112 318.201C512.018 314.437 511.264 312.175 510.057 314.68Z" fill="white"/>
<path d="M517.359 321.462C520.617 321.364 518.54 320.754 518.319 319.523C518.085 318.278 516.869 318.269 515.357 319.867C515.289 319.934 515.221 320.001 515.18 320.068C514.54 320.807 514.726 321.159 515.306 321.339C515.819 321.478 516.589 321.47 517.359 321.462Z" fill="white"/>
<path d="M376.722 292.961C372.938 287.433 369.426 285.313 370.612 283.849C371.798 282.411 376.681 283.771 380.241 290.378C383.788 296.971 382.883 300.654 381.098 300.912C379.326 301.156 380.092 297.877 376.722 292.961Z" fill="white"/>
<path d="M351.092 316.507C353.175 321.86 354.34 323.395 354.552 320.261C354.764 317.128 358.54 312.574 355.856 313.689C353.172 314.805 351.179 313.899 350.274 311.919C349.356 309.953 349.872 313.363 351.092 316.507Z" fill="white"/>
</svg>
