<svg width="619" height="619" viewBox="0 0 619 619" fill="none" xmlns="http://www.w3.org/2000/svg">
<path d="M593.456 318.2C587.39 318.065 588.769 333.896 590.944 334.418C593.119 334.941 595.358 335.614 595.358 335.614L597.567 334.948C608.441 331.546 599.508 318.349 593.456 318.2Z" fill="#8A8A8A"/>
<path d="M593.264 318.276C587.986 318.475 592.564 329.396 592.564 329.396C601.976 332.102 598.298 321.856 593.264 318.276Z" fill="#404040"/>
<path d="M16.4187 318.933C16.164 318.858 15.9224 318.797 15.6816 318.708L35.54 339.752L39.8172 326.046C39.8172 326.046 28.0814 322.353 16.4187 318.933Z" fill="#8A8A8A"/>
<path d="M53.5098 282.275L62.0627 254.917C62.0627 254.917 58.7401 253.874 53.8091 252.352L29.7633 275.044C41.774 278.582 53.5098 282.275 53.5098 282.275Z" fill="#8A8A8A"/>
<path d="M0.610783 302.738C1.29186 302.095 1.93357 301.411 2.53516 300.712L0.505851 302.627L0.610783 302.738Z" fill="#8A8A8A"/>
<path d="M39.8172 326.046C39.8172 326.046 28.0814 322.353 16.4056 318.919C16.1509 318.844 15.9093 318.783 15.6685 318.695L23.5253 327.02C31.687 329.487 38.0906 331.512 38.0906 331.512L39.8172 326.046Z" fill="#CBCBCB"/>
<path d="M60.336 260.382C60.336 260.382 55.7948 258.94 48.9868 256.877L39.3684 265.953C49.4874 268.991 56.909 271.342 56.909 271.342L60.336 260.382Z" fill="#404040"/>
<path d="M23.5384 327.034L35.54 339.752L38.1037 331.526C38.1037 331.526 31.7002 329.501 23.5384 327.034Z" fill="#404040"/>
<path d="M61.6314 256.27C61.6314 256.27 58.0533 255.179 52.5728 253.492L44.1776 261.415C52.6334 263.999 58.6364 265.849 58.6364 265.849L61.6314 256.27Z" fill="#CBCBCB"/>
<path d="M61.6314 256.27C61.6314 256.27 58.0533 255.179 52.5728 253.492L46.5961 259.133C54.2616 261.464 59.4997 263.116 59.4997 263.116L61.6314 256.27Z" fill="white"/>
<path d="M54.36 279.528C54.36 279.528 43.8034 276.194 32.1546 272.761L29.7362 275.043C41.7739 278.582 53.4959 282.288 53.4959 282.288L54.36 279.528Z" fill="#CBCBCB"/>
<path d="M39.3991 327.413C39.3991 327.413 31.6001 325.023 23.0378 322.382C21.2418 321.844 19.4188 321.304 17.636 320.779L31.5132 335.485C34.4345 336.381 36.4041 336.992 36.4041 336.992L39.3991 327.413Z" fill="white"/>
<path d="M56.0596 274.062C56.0596 274.062 47.3916 271.336 36.9777 268.209L34.5731 270.478C45.6577 273.787 55.2233 276.795 55.2233 276.795L56.0596 274.062Z" fill="#CBCBCB"/>
<path d="M38.5358 330.145C38.5358 330.145 30.134 327.563 21.5578 324.935L25.5452 329.161C32.178 331.205 37.6724 332.878 37.6724 332.878L38.5358 330.145Z" fill="#CBCBCB"/>
<path d="M78.5691 368.308C96.4864 373.762 115.246 367.857 127.242 354.644C127.242 354.644 149.489 361.4 171.748 368.169C182.901 371.439 194.609 374.685 203.688 376.787C212.793 378.889 219.143 379.966 219.143 379.966C221.051 385.942 224.336 391.567 229.255 396.306C234.12 401.044 240.388 404.93 247.633 407.316C254.047 409.435 261.212 410.373 268.744 409.861C268.744 409.861 272.684 409.637 278.299 409.043C283.939 408.476 291.159 407.523 297.964 406.436C304.822 405.35 311.209 404.21 315.884 403.372C320.56 402.508 323.699 401.936 323.699 401.936L318.541 373.748C318.541 373.748 315.455 374.321 310.834 375.16C306.213 376 299.976 377.103 293.511 378.133C287.073 379.163 280.451 380.025 275.366 380.54C270.295 381.069 266.828 381.266 266.828 381.266C264.119 381.458 261.532 381.14 259.134 380.381C267.636 376.693 272.788 369.677 273.524 361.993C273.687 360.578 273.675 359.117 273.514 357.666C273.354 356.215 273.07 354.801 272.637 353.423C270.35 346.016 264.515 340.25 257.957 337.031C259.753 336.15 261.702 335.626 263.72 335.481C263.72 335.481 266.442 335.33 270.646 334.884C274.849 334.465 280.522 333.71 286.349 332.784C292.161 331.871 298.154 330.814 302.694 329.973C307.234 329.131 310.251 328.569 310.251 328.569L305.092 300.381C305.092 300.381 302.116 300.93 297.631 301.746C293.146 302.563 287.231 303.257 281.825 304.154C276.377 305.065 271.204 305.374 267.58 305.851C263.943 306.34 261.68 306.531 261.68 306.531C257.802 306.906 254.099 308.272 250.45 310.113C244.113 313.255 238.038 318.541 232.336 325.446C226.634 332.325 221.694 340.901 219.445 350.854C219.445 350.854 214.444 349.898 206.994 348.073C199.543 346.276 189.646 343.501 179.712 340.604C159.918 334.582 140.111 328.574 140.111 328.574C146.97 303.207 133.477 277.13 109.489 269.837C109.489 269.837 106.553 268.955 102.158 267.61C97.7372 266.212 91.8562 264.351 85.989 262.478C73.9993 258.683 62.0365 254.889 62.0365 254.889L53.4837 282.247C53.4837 282.247 65.3931 286.013 77.2888 289.791C83.1829 291.666 89.1041 293.541 93.5249 294.94C97.9473 296.284 100.909 297.195 100.909 297.195C103.16 297.882 105.184 298.941 106.941 300.358C98.7581 301.432 91.5715 305.901 87.8188 312.701C87.1067 313.951 86.5411 315.273 86.0952 316.666C85.6492 318.059 85.3515 319.47 85.2158 320.886C84.3713 328.567 87.7584 336.25 93.9815 341.702C91.7051 341.88 89.4142 341.624 87.1359 340.936C87.1359 340.936 84.1475 340.025 79.6579 338.665C75.197 337.251 69.2758 335.376 63.3415 333.487C51.5663 329.753 39.7772 326.031 39.7772 326.031L35.5 339.737L55.6994 361.142C61.2856 362.913 66.8047 364.668 70.9978 365.993C75.5677 367.383 78.5691 368.308 78.5691 368.308Z" fill="#8A8A8A"/>
<path d="M266.828 381.266C266.828 381.266 270.308 381.056 275.366 380.54C280.451 380.025 287.073 379.163 293.511 378.133C299.962 377.116 306.213 376 310.834 375.16C315.469 374.308 318.541 373.748 318.541 373.748L319.58 379.388C319.58 379.388 316.318 379.997 311.426 380.882C306.533 381.768 299.888 382.941 292.975 384.025C286.077 385.096 278.885 385.996 273.381 386.513C270.616 386.757 268.313 386.933 266.647 387.034C264.954 387.134 264.007 387.187 264.007 387.187C258.834 387.47 254.113 385.697 250.766 382.707C250.766 382.707 255.415 381.841 259.175 380.369C261.532 381.14 264.119 381.458 266.828 381.266Z" fill="#CBCBCB"/>
<path d="M258.225 312.839C260.134 312.746 261.975 312.664 264.306 312.461C266.569 312.297 269.024 312.03 271.533 311.738C276.593 311.141 282.079 310.3 287.187 309.447C292.309 308.582 297.133 307.735 300.586 307.078C304.038 306.448 306.145 306.062 306.145 306.062L308.197 317.343C308.197 317.343 306.117 317.729 302.665 318.359C299.212 319.016 294.402 319.85 289.185 320.753C283.968 321.629 278.319 322.493 272.987 323.136C267.642 323.766 262.615 324.174 258.596 324.315C255.321 324.436 252.501 325.152 250.008 326.269C244.503 328.706 240.431 332.995 237.396 336.489C234.376 339.944 232.489 342.539 231.571 341.093C230.355 339.219 232.394 334.168 236.008 328.892C239.662 323.631 244.717 318.072 250.333 315.085C252.818 313.764 255.397 312.933 258.225 312.839Z" fill="#404040"/>
<path d="M244.824 382.954C246.026 383.002 247.229 382.997 248.353 382.935C249.166 382.877 249.952 382.792 250.739 382.706C254.059 385.696 258.807 387.469 263.98 387.186C263.98 387.186 264.941 387.12 266.62 387.033C268.286 386.933 270.589 386.756 273.354 386.512C278.871 386.009 286.049 385.122 292.948 384.024C299.874 382.954 306.519 381.781 311.399 380.882C316.292 379.969 319.553 379.387 319.553 379.387L321.606 390.668C321.606 390.668 318.67 391.205 314.266 392.023C309.876 392.829 303.911 393.886 297.636 394.894C291.36 395.902 284.831 396.808 279.786 397.365C274.754 397.936 271.245 398.199 271.245 398.199C269.103 398.38 266.847 398.328 264.651 398.089C262.495 397.837 260.398 397.398 258.417 396.746C254.451 395.495 250.941 393.447 248.094 390.931C245.405 388.554 243.334 385.858 241.881 382.788C241.881 382.788 242.61 382.836 243.339 382.884C244.095 382.906 244.824 382.954 244.824 382.954Z" fill="#404040"/>
<path d="M236.457 385.226C238.587 385.45 240.53 386.507 241.602 388.228C243.244 390.831 245.395 393.11 248.001 395.092C253.621 399.405 261.461 401.782 269.82 401.172C269.82 401.172 273.477 400.927 278.767 400.35C284.042 399.786 290.869 398.862 297.375 397.82C303.908 396.78 310.05 395.687 314.576 394.858C319.116 394.016 322.147 393.469 322.147 393.469L323.699 401.936C323.699 401.936 320.587 402.508 315.884 403.372C311.209 404.21 304.808 405.363 297.963 406.436C291.159 407.523 283.939 408.476 278.298 409.043C272.684 409.637 268.744 409.861 268.744 409.861C261.226 410.36 254.047 409.435 247.633 407.316C234.403 402.931 224.463 393.707 220.269 383.081C220.269 383.081 221.265 383.245 222.731 383.49C224.253 383.71 226.259 383.998 228.278 384.3C232.345 384.85 236.457 385.226 236.457 385.226Z" fill="#CBCBCB"/>
<path d="M259.956 308.158C267.055 307.634 278.102 306.669 287.762 304.989C292.572 304.182 297.057 303.366 300.278 302.769C303.472 302.173 305.402 301.823 305.402 301.823L307.198 311.69C307.198 311.69 305.282 312.054 302.088 312.623C298.894 313.22 294.423 314.024 289.545 314.842C279.776 316.546 268.375 318.082 260.523 318.449C255.026 318.722 252.052 319.664 250.194 320.34C248.693 320.81 247.9 321.111 247.145 320.562C246.324 319.971 247.024 315.422 250.443 312.222C252.501 310.227 255.471 308.528 259.956 308.158Z" fill="#CBCBCB"/>
<path d="M259.956 308.158C267.055 307.634 278.102 306.669 287.762 304.989C292.572 304.182 297.057 303.366 300.278 302.769C303.472 302.173 305.402 301.823 305.402 301.823L306.698 308.877C306.698 308.877 304.619 309.263 301.194 309.894C297.755 310.538 292.958 311.385 287.822 312.264C282.687 313.116 277.174 313.956 272.032 314.578C269.469 314.869 266.973 315.148 264.642 315.324C262.257 315.525 260.321 315.618 258.358 315.709C254.541 315.869 252.017 317.121 250.303 317.977C249.001 318.575 248.193 318.943 247.739 318.268C247.053 317.234 248.088 314.628 250.462 312.466C252.564 310.404 255.701 308.521 259.956 308.158Z" fill="white"/>
<path d="M220.269 348.106L219.714 350.916C219.714 350.916 226.34 352.257 232.98 353.112C236.307 353.546 239.623 353.886 242.132 354.067C244.641 354.274 246.302 354.336 246.302 354.336C246.698 350.941 247.843 347.81 249.475 345.14C251.608 341.525 254.595 338.732 258.01 337.06C258.065 337.034 258.106 337.022 258.161 336.997C258.969 336.628 259.79 336.3 260.648 336.068L261.07 335.959C261.955 335.755 262.826 335.564 263.747 335.509C263.747 335.509 266.468 335.358 270.672 334.912C274.875 334.493 280.548 333.738 286.375 332.812C292.188 331.899 298.18 330.842 302.72 330C307.26 329.159 310.291 328.611 310.291 328.611L309.778 325.784C309.778 325.784 306.597 326.368 301.813 327.257C297.015 328.132 290.751 329.235 284.653 330.18C278.556 331.125 272.653 331.86 268.316 332.248C263.938 332.649 261.244 332.773 261.244 332.773C260.337 332.815 259.44 332.978 258.582 333.183L258.174 333.279C257.329 333.498 256.522 333.813 255.714 334.181C255.659 334.207 255.618 334.219 255.577 334.231C253.399 335.236 251.395 336.733 249.663 338.657C249.413 338.893 249.189 339.157 248.965 339.42C242.917 346.573 236.547 350.849 227.329 349.379L226.334 349.215C224.881 348.957 223.689 348.111 222.94 346.9C222.19 345.715 221.87 344.178 222.171 342.632C221.444 344.396 220.797 346.216 220.269 348.106Z" fill="#CBCBCB"/>
<path d="M243.603 354.177C243.603 354.177 239.406 353.906 235.216 353.393C231.053 352.907 226.855 352.218 226.855 352.218C230.92 352.849 235.01 352.589 238.926 351.337C241.081 350.697 243.865 352.116 243.603 354.177Z" fill="#8A8A8A"/>
<path d="M277.986 385.294C277.88 384.291 276.93 383.479 275.433 382.895C274.698 382.617 276.802 381.839 278.091 381.674C281.617 381.316 292.23 379.894 301.443 378.268C306.009 377.454 310.357 376.688 313.565 376.105C316.745 375.521 318.811 375.148 318.811 375.148L320.607 385.015C320.607 385.015 314.423 386.147 307.424 387.418C300.344 388.686 291.977 390.012 288.34 390.502C277.304 392.034 272.334 391.863 270.532 391.54C268.69 391.176 269.804 390.519 270.028 390.282C274.879 389.436 278.212 387.315 277.986 385.294Z" fill="white"/>
<path d="M266.384 383.525C269.807 383.421 271.635 383.799 271.471 384.321C271.253 384.842 269.124 385.537 263.954 385.739C260.677 385.915 252.795 384.524 250.739 382.706C250.739 382.706 255.433 381.666 259.148 380.368C255.394 381.625 262.377 383.706 266.384 383.525Z" fill="#8A8A8A"/>
<path d="M259.826 327.122C259.826 327.122 260.503 327.087 261.708 327.027C262.845 326.952 264.633 326.842 266.788 326.647C271.084 326.299 277 325.551 283.138 324.62C289.289 323.676 295.663 322.55 300.582 321.665C305.476 320.752 308.737 320.171 308.737 320.171L309.25 322.997C309.25 322.997 305.988 323.606 301.081 324.505C296.162 325.39 289.761 326.516 283.569 327.472C277.39 328.415 271.393 329.16 267.03 329.521C264.847 329.714 263.033 329.824 261.854 329.911C260.622 329.97 259.945 330.005 259.945 330.005C259.309 330.027 258.786 329.417 258.754 328.632C258.738 327.807 259.217 327.145 259.826 327.122Z" fill="#CBCBCB"/>
<path d="M280.937 384.244C280.937 384.244 283.447 383.925 287.22 383.412C290.953 382.885 295.856 382.121 300.638 381.313C305.326 380.489 310.028 379.652 313.534 379.024C317 378.381 319.325 377.948 319.325 377.948L319.838 380.775C319.838 380.775 317.513 381.208 314.034 381.837C310.501 382.464 305.799 383.302 301.111 384.126C296.315 384.947 291.385 385.709 287.625 386.236C283.825 386.748 281.288 387.066 281.288 387.066C280.446 387.177 279.692 386.601 279.593 385.827C279.494 385.054 280.095 384.355 280.937 384.244Z" fill="#CBCBCB"/>
<path d="M87.176 340.951C87.176 340.951 84.1876 340.04 79.6981 338.679C75.2371 337.266 69.3159 335.391 63.3816 333.502C51.6064 329.767 39.8173 326.046 39.8173 326.046L38.1038 331.526C38.1038 331.526 50.5219 335.468 62.9408 339.384C75.4098 343.436 88.1028 347.224 88.1028 347.224C92.3508 348.523 96.7608 347.961 100.494 346.042C100.494 346.042 96.8635 343.949 94.0216 341.717C91.7583 341.909 89.4543 341.639 87.176 340.951Z" fill="#CBCBCB"/>
<path d="M113.042 276.916C108.231 275.438 102.549 273.705 96.7469 271.929C90.9199 270.07 84.9586 268.18 79.6139 266.471C68.7494 263.033 60.3361 260.383 60.3361 260.383L56.923 271.329C56.923 271.329 65.229 273.949 76.0133 277.357C81.3448 279.053 87.2922 280.956 93.1463 282.815C98.9756 284.593 104.711 286.355 109.616 287.849C130.803 294.289 129.541 316.37 133.307 314.262C138.171 311.537 133.479 283.119 113.042 276.916Z" fill="#404040"/>
<path d="M72.2669 354.39C76.5148 355.689 79.3558 356.555 79.3558 356.555C89.755 359.723 100.655 356.321 107.798 348.714L105.359 347.967C103.657 347.445 102.054 346.776 100.521 346.042C96.8009 347.976 92.4048 348.525 88.1429 347.238C88.1429 347.238 75.4639 343.437 62.981 339.398C50.5628 335.456 38.1439 331.54 38.1439 331.54L35.5802 339.767L39.5939 344.02C43.8542 345.36 50.3511 347.428 56.875 349.496C62.4481 351.253 68.0606 353.051 72.2669 354.39Z" fill="#404040"/>
<path d="M78.5691 368.308C95.4143 373.433 112.996 368.535 124.999 356.945L111.33 352.791C109.548 352.239 107.589 352.669 106.16 353.912C99.1009 360.048 89.2675 362.548 79.8462 359.693C79.8462 359.693 76.925 358.797 72.5427 357.467C68.2161 356.084 62.4292 354.24 56.6554 352.41C52.047 350.951 47.4788 349.508 43.6206 348.287L55.7665 361.158C61.3527 362.929 66.8718 364.684 71.0649 366.009C75.5676 367.383 78.5691 368.308 78.5691 368.308Z" fill="#CBCBCB"/>
<path d="M111.71 272.024C102.073 269.163 89.7494 265.21 79.5957 261.968C69.3741 258.738 61.6307 256.297 61.6307 256.297L58.6357 265.876C58.6357 265.876 66.2849 268.301 76.4263 271.502C86.5267 274.715 98.8761 278.696 108.701 281.617C120.843 285.294 122.03 289.114 124.559 288.62C126.477 288.229 127.698 276.881 111.71 272.024Z" fill="#CBCBCB"/>
<path d="M111.71 272.024C102.073 269.163 89.7494 265.21 79.5957 261.968C69.3741 258.738 61.6307 256.297 61.6307 256.297L59.499 263.143C59.499 263.143 67.8181 265.777 78.6294 269.186C83.9609 270.882 89.9084 272.785 95.7493 274.631C101.565 276.421 107.274 278.155 112.179 279.649C120.728 282.249 122.855 287.232 124.724 286.204C127.033 284.892 123.825 275.701 111.71 272.024Z" fill="white"/>
<path d="M140.773 325.794L139.95 328.542L113.71 320.562C115.545 312.761 112.757 304.933 106.941 300.358C106.902 300.316 106.835 300.3 106.795 300.259C106.001 299.668 105.18 299.103 104.287 298.631L103.834 298.402C102.901 297.942 101.954 297.523 100.935 297.223C100.935 297.223 97.9867 296.326 93.5512 294.967C89.1303 293.569 83.223 291.68 77.315 289.819C65.4054 286.054 53.5099 282.275 53.5099 282.275L54.3732 279.542C54.3732 279.542 66.9387 283.53 79.5181 287.504C91.9872 291.556 104.439 295.283 104.439 295.283C105.47 295.597 106.432 296.003 107.338 296.462L107.791 296.691C108.669 297.177 109.505 297.728 110.299 298.319C110.338 298.361 110.406 298.376 110.445 298.418C112.864 300.313 114.78 302.788 116.037 305.596C120.09 314.542 124.49 320.848 133.71 323.656L134.702 323.956C136.149 324.403 137.657 324.163 138.907 323.455C140.158 322.748 141.179 321.575 141.642 320.06C141.452 321.947 141.18 323.886 140.773 325.794Z" fill="#CBCBCB"/>
<path d="M116.337 321.368L132.847 326.389C128.84 325.178 125.153 323.165 121.878 320.502C120.055 319.016 116.814 319.368 116.337 321.368Z" fill="#8A8A8A"/>
<path d="M76.3579 342.909C76.6694 341.958 77.6885 341.311 79.1584 340.975C79.8794 340.821 78.1538 339.716 77.0023 339.331C70.8805 337.383 39.386 327.399 39.386 327.399L36.3911 336.978C36.3911 336.978 59.7941 344.403 66.0634 346.396C75.7076 349.487 79.8632 350.243 81.5135 350.21C83.1769 350.19 82.3768 349.343 82.2496 349.068C78.2827 347.399 75.7473 344.851 76.3579 342.909Z" fill="white"/>
<path d="M87.0014 343.244C81.1518 341.696 79.9917 343.474 88.4939 345.856C91.2161 346.625 98.1891 347.192 100.493 346.069C100.493 346.069 96.8814 343.801 94.0208 341.744C96.8814 343.801 90.3418 344.139 87.0014 343.244Z" fill="#8A8A8A"/>
<path d="M107.439 290.192C107.439 290.192 104.236 289.22 99.4513 287.77C94.6523 286.361 88.3044 284.284 81.8877 282.246C68.9733 278.167 56.0597 274.062 56.0597 274.062L55.1964 276.795C55.1964 276.795 68.0969 280.886 81.0113 284.965C93.8021 289.107 106.575 292.925 106.575 292.925C107.299 293.135 108.082 292.712 108.32 291.962C108.558 291.211 108.176 290.416 107.439 290.192Z" fill="#CBCBCB"/>
<path d="M73.9278 341.392L38.535 330.173L37.6717 332.906L73.0506 344.138C73.7738 344.375 74.5705 343.939 74.8086 343.188C75.0605 342.425 74.6649 341.616 73.9278 341.392Z" fill="#CBCBCB"/>
<path d="M259.134 380.381C255.374 381.854 250.726 382.693 250.726 382.693C250.726 382.693 252.753 382.251 255.057 381.128C257.374 380.019 259.94 378.228 261.08 375.733C263.579 370.222 262.673 369.29 263.432 368.284C264.134 367.385 265.291 369.447 265.21 372.256C265.142 375.053 263.769 378.582 259.134 380.381Z" fill="#404040"/>
<path d="M179.751 340.646L174.946 357.162C186.516 360.539 198.355 363.924 210.62 366.619C216.759 367.973 222.972 369.126 229.368 370.001C235.777 370.89 242.223 371.455 248.693 371.656C251.058 371.711 253.423 371.739 255.776 371.699C260.456 371.618 262.968 366.567 260.535 362.847C257.896 358.714 253.844 355.785 249.183 354.744C248.27 354.528 247.301 354.392 246.315 354.35C246.315 354.35 242.101 354.201 235.822 353.505C229.556 352.796 221.187 351.418 212.873 349.514C204.559 347.665 196.296 345.397 190.088 343.636C183.894 341.834 179.751 340.646 179.751 340.646Z" fill="#404040"/>
<path d="M258.52 347.904C255.217 349.471 251.773 349.804 249.3 351.192C247.996 351.871 246.968 352.814 246.302 354.336C246.698 350.941 247.829 347.824 249.487 345.181C250.158 343.97 250.974 342.858 251.868 341.857C259.267 342.206 263.073 345.683 258.52 347.904Z" fill="#404040"/>
<path d="M255.847 354.315C262.598 359.297 266.639 364.443 267.827 369.182C268.167 370.517 267.857 371.414 268.165 371.044C270.438 368.19 271.803 364.931 272.158 361.548C272.301 360.335 272.31 359.092 272.172 357.803C272.047 356.529 271.798 355.318 271.439 354.186C270.181 350.012 267.684 346.114 264.178 343.484C261.599 341.503 258.975 341.089 261.546 343.787C264.041 346.347 264.245 348.651 258.883 350.32C253.511 351.895 252.183 351.519 255.847 354.315ZM263.903 357.172C266.989 355.179 268.072 353.264 268.357 349.973C268.426 348.961 271.297 356.264 271.142 358.828C270.957 361.472 269.664 363.165 267.805 363.395C266.218 363.606 262.567 358.012 263.903 357.172Z" fill="#CBCBCB"/>
<path d="M94.0216 341.717C96.8627 343.976 100.494 346.042 100.494 346.042C100.494 346.042 94.28 342.13 93.5959 336.811C92.8195 330.948 93.8271 330.234 93.4007 329.086C92.5409 327.033 87.0305 336.174 94.0216 341.717Z" fill="#404040"/>
<path d="M227.617 331.975C227.066 332.81 226.58 333.716 226.067 334.62C226.067 334.62 224.817 334.381 222.598 333.952C220.394 333.509 217.223 332.85 213.383 331.927C205.702 330.136 195.308 327.253 184.557 324.102C163.115 317.587 141.687 311.058 141.687 311.058C141.595 310.014 141.544 308.985 141.398 307.967C141.398 307.967 163.389 314.647 185.367 321.341C196.386 324.58 206.982 327.483 214.783 329.318C222.572 331.139 227.617 331.975 227.617 331.975Z" fill="#8A8A8A"/>
<path d="M227.617 331.975C227.348 332.413 227.106 332.825 226.836 333.29L226.067 334.62L223.204 334.064C223.526 334.127 223.885 333.867 223.964 333.478C224.043 333.088 223.797 332.716 223.487 332.666C223.487 332.666 218.849 331.788 211.733 330.068C204.617 328.374 194.962 325.661 184.975 322.736C165.074 316.684 145.173 310.632 145.173 310.632C144.838 310.527 144.427 310.732 144.308 311.107C144.189 311.482 144.42 311.894 144.755 311.998L141.7 311.072L141.568 309.54C141.489 309.011 141.477 308.497 141.397 307.994C141.397 307.994 163.388 314.674 185.366 321.368C196.385 324.607 206.981 327.51 214.783 329.345C222.572 331.139 227.617 331.975 227.617 331.975Z" fill="#CBCBCB"/>
<path d="M220.269 348.106C219.999 349.018 219.716 349.915 219.499 350.883C219.499 350.883 214.497 349.926 207.047 348.102C199.596 346.304 189.699 343.53 179.765 340.633C159.972 334.611 140.164 328.602 140.164 328.602C140.422 327.65 140.597 326.722 140.773 325.794C140.773 325.794 160.661 331.832 180.561 337.884C190.535 340.796 200.432 343.57 207.87 345.354C215.307 347.165 220.269 348.106 220.269 348.106Z" fill="#8A8A8A"/>
<path d="M222.171 342.632C221.458 344.383 220.81 346.229 220.269 348.106C220.269 348.106 215.307 347.165 207.87 345.354C200.432 343.57 190.535 340.796 180.561 337.884C160.674 331.846 140.773 325.794 140.773 325.794C141.18 323.886 141.438 321.961 141.615 320.059C141.615 320.059 161.878 326.217 182.154 332.388C192.315 335.359 202.319 338.163 209.771 339.934C217.236 341.719 222.171 342.632 222.171 342.632Z" fill="#404040"/>
<path d="M223.344 339.949C222.94 340.829 222.522 341.723 222.157 342.645C222.157 342.645 217.222 341.732 209.771 339.934C202.319 338.163 192.315 335.359 182.154 332.388C161.891 326.23 141.615 320.059 141.615 320.059C141.711 319.075 141.753 318.09 141.781 317.117C141.781 317.117 162.366 323.365 182.95 329.639C193.272 332.669 203.357 335.476 210.876 337.262C218.395 339.048 223.344 339.949 223.344 339.949Z" fill="#CBCBCB"/>
<path d="M226.067 334.62C225.072 336.295 224.182 338.107 223.331 339.935C223.331 339.935 218.395 339.048 210.877 337.235C203.371 335.463 193.273 332.642 182.951 329.612C162.366 323.365 141.782 317.09 141.782 317.09C141.854 315.078 141.859 313.05 141.673 311.071C141.673 311.071 163.115 317.587 184.543 324.115C195.294 327.266 205.688 330.149 213.369 331.94C217.21 332.836 220.367 333.508 222.585 333.965C224.803 334.394 226.067 334.62 226.067 334.62Z" fill="white"/>
<path d="M241.922 382.775C241.922 382.775 241.329 382.731 240.223 382.645C239.103 382.572 237.484 382.444 235.408 382.222C231.283 381.832 225.303 381.064 218.537 379.854C204.898 377.485 187.753 372.878 171.722 368.141C139.733 358.413 107.758 348.699 107.758 348.699C97.894 345.709 94.3065 335.615 101.235 337.722L172.302 359.316C184.151 362.823 196.326 366.313 209.019 369.154C215.373 370.569 221.813 371.796 228.451 372.732C235.116 373.669 241.844 374.283 248.584 374.492L252.746 374.558C259.008 374.483 256.019 380.115 248.361 382.191C246.468 382.664 244.269 382.952 241.922 382.775Z" fill="#CBCBCB"/>
<path d="M179.751 340.646L174.946 357.162L99.4441 334.209C95.3165 332.954 94.2566 327.542 97.5082 324.5C101.775 320.5 107.881 318.785 113.683 320.562L179.751 340.646Z" fill="#404040"/>
<path d="M251.793 364.527L248.915 364.484C236.244 364.117 223.647 362.156 211.477 359.451C199.28 356.745 187.387 353.332 175.631 349.868L105.221 328.468C103.117 327.826 102.604 324.999 104.349 323.563C106.706 321.549 109.834 320.883 112.716 321.764C112.716 321.764 146.045 331.882 179.373 342.027C196.075 346.973 212.805 351.392 225.548 353.451C238.248 355.603 246.841 355.798 246.841 355.798C247.637 355.835 248.431 355.98 249.167 356.231C251.177 356.857 252.949 358.233 254.165 360.107C255.409 361.955 254.077 364.552 251.793 364.527Z" fill="#CBCBCB"/>
<path d="M246.216 361.485C246.216 361.485 237.354 361.256 224.345 359.053C211.333 356.932 194.402 352.44 177.768 347.51C144.56 337.409 111.365 327.321 111.365 327.321C101.716 324.392 109.848 320.869 112.716 321.737C112.716 321.737 146.046 331.855 179.374 342C196.076 346.946 212.806 351.365 225.549 353.424C238.249 355.576 246.842 355.771 246.842 355.771C247.503 355.804 248.359 356.126 249.142 356.622C251.468 358.001 253.498 360.736 249.004 361.404C248.27 361.518 247.35 361.545 246.216 361.485Z" fill="white"/>
<path d="M103.48 310.64C107.971 314.258 113.324 315.698 113.71 320.562C114.85 315.755 114.205 310.951 112.201 306.878C104.163 304.792 99.3314 307.302 103.48 310.64Z" fill="#404040"/>
<path d="M102.469 312.855C97.4733 309.844 98.0909 307.658 101.388 305.834C104.795 303.959 101.886 303.577 98.6455 304.849C94.3646 306.55 91.011 309.846 88.913 313.665C88.329 314.689 87.8361 315.838 87.4358 317.056C87.0485 318.289 86.7972 319.498 86.6809 320.712C86.3129 324.081 86.9298 327.519 88.3773 330.752C88.5678 331.176 88.4863 330.255 89.1175 329.002C91.3122 324.645 96.2617 320.395 104.375 317.52C108.801 315.972 107.451 315.879 102.469 312.855ZM90.442 323.416C88.7294 322.799 87.8518 320.894 88.2249 318.282C88.5965 315.725 93.0174 309.188 92.8796 310.211C92.4599 313.498 93.1298 315.572 95.676 318.215C96.7793 319.328 91.9007 323.932 90.442 323.416Z" fill="#CBCBCB"/>
<path d="M244.882 346.427C242.935 349.236 242.193 350.094 239.524 351.22L239.538 351.233C241.559 350.981 243.846 352.318 243.603 354.177C243.603 354.177 244.564 352.271 245.453 350.039C246.869 346.444 246.437 344.092 244.882 346.427Z" fill="white"/>
<path d="M251.23 354.1C254.479 354.424 252.489 353.569 252.431 352.31C252.373 351.051 251.161 350.881 249.458 352.251C249.389 352.317 249.306 352.368 249.264 352.435C248.529 353.076 248.666 353.472 249.227 353.704C249.694 353.921 250.448 354.024 251.23 354.1Z" fill="white"/>
<path d="M115.656 307.059C112.639 301.077 109.442 298.497 110.817 297.225C112.193 295.954 116.853 297.968 119.489 304.966C122.138 311.978 120.738 315.507 118.94 315.522C117.141 315.538 118.354 312.396 115.656 307.059Z" fill="white"/>
<path d="M87.1075 326.984C88.4599 332.566 89.4117 334.243 90.0282 331.165C90.6446 328.087 95.0059 324.076 92.199 324.833C89.379 325.576 87.5331 324.427 86.904 322.341C86.275 320.254 86.3107 323.689 87.1075 326.984Z" fill="white"/>
<path d="M528.439 277.705C526.176 278.343 524.146 279.365 522.362 280.733C530.477 282.009 537.509 286.62 541.068 293.483C541.748 294.76 542.291 296.087 542.696 297.492C543.102 298.896 543.358 300.309 543.465 301.759C544.119 309.497 540.545 317.154 534.144 322.484C536.409 322.712 538.727 322.495 541.044 321.859C541.044 321.859 553.083 318.355 565.122 314.851C568.845 313.729 572.541 312.606 575.896 311.594C583.398 309.324 589.126 307.597 589.126 307.597C596.501 305.499 600.807 308.504 602.344 311.915C606.182 320.381 583.082 329.567 597.579 334.989C597.579 334.989 585.428 338.652 573.275 342.342C561.086 345.883 548.897 349.423 548.897 349.423C530.699 354.614 511.973 348.137 500.429 334.54C500.429 334.54 494.776 336.012 486.303 338.227C477.829 340.469 466.5 343.277 455.17 346.085C443.829 348.852 432.462 351.538 423.915 353.507C415.369 355.45 409.68 356.745 409.68 356.745C407.696 365.502 403.303 373.405 397.093 379.633C390.882 385.889 382.828 390.441 373.567 392.322C373.567 392.322 361.135 394.909 348.669 397.292C342.441 398.518 336.215 399.716 331.513 400.554C326.837 401.419 323.698 401.99 323.698 401.99L318.539 373.802C318.539 373.802 321.625 373.228 326.245 372.389C330.879 371.563 337.038 370.376 343.197 369.162C355.514 366.816 367.796 364.265 367.796 364.265C370.149 363.779 372.296 362.908 374.198 361.665C366.058 359.861 359.352 354.732 356.355 347.602C355.771 346.287 355.365 344.91 355.068 343.482C354.771 342.054 354.624 340.616 354.652 339.171C354.634 331.41 358.753 324.08 365.356 319.242C363.15 318.854 360.864 318.882 358.566 319.343C358.566 319.343 346.529 321.847 334.443 324.16C328.407 325.337 322.37 326.514 317.831 327.329C313.291 328.171 310.274 328.732 310.274 328.732L305.115 300.544C305.115 300.544 308.091 299.995 312.576 299.178C317.048 298.375 323.029 297.223 328.985 296.044C340.921 293.767 352.808 291.3 352.808 291.3C365.006 288.855 377.109 291.544 387.07 298.146C397.019 304.735 404.819 315.032 408.059 327.767C408.059 327.767 413.108 326.629 420.661 324.914C428.203 323.105 438.263 320.706 448.309 318.321C458.332 315.826 468.394 313.373 475.873 311.386C483.379 309.454 488.378 308.152 488.378 308.152C485.395 295.385 487.511 282.562 493.315 272.145C499.131 261.769 508.586 253.661 520.554 250.276C520.554 250.276 532.225 246.883 543.882 243.503C555.516 239.987 563.806 267.428 552.035 270.994C540.246 274.262 528.439 277.705 528.439 277.705Z" fill="#8A8A8A"/>
<path d="M589.114 307.557C589.114 307.557 583.386 309.283 575.884 311.553C572.529 312.565 568.819 313.701 565.11 314.81C563.173 315.376 561.21 315.941 559.315 316.495C558.715 316.666 558.115 316.838 557.516 317.01C556.67 317.256 555.852 317.503 555.034 317.722C554.462 317.895 553.903 318.055 553.344 318.214C550.562 319.026 548.067 319.751 546.049 320.342C545.163 320.6 544.386 320.834 543.704 321.031C543.268 321.153 542.886 321.277 542.545 321.362C541.563 321.658 540.991 321.804 540.991 321.804C538.688 322.454 536.357 322.657 534.092 322.429C531.189 324.616 527.481 326.644 527.481 326.644C531.154 328.643 535.556 329.298 539.863 328.071C539.863 328.071 543.053 327.163 547.838 325.801C552.61 324.398 558.978 322.541 565.345 320.685C576.774 317.23 597.081 311.127 601.05 309.93C598.972 307.477 595.044 305.849 589.114 307.557Z" fill="#CBCBCB"/>
<path d="M597.319 322.99C600.546 319.393 604.01 315.546 602.333 311.847C602.015 311.148 601.589 310.473 601.038 309.862C593.427 312.183 575.273 317.701 565.399 320.686C559.032 322.543 552.664 324.4 547.892 325.803C543.107 327.165 539.917 328.073 539.917 328.073C535.611 329.273 531.222 328.632 527.548 326.633C525.987 327.345 524.359 327.987 522.642 328.478L520.161 329.163C527.06 336.947 537.906 340.56 548.456 337.594C548.456 337.594 559.909 334.249 571.362 330.904C577.923 328.917 589.053 325.508 597.319 322.99Z" fill="#404040"/>
<path d="M550.107 247.482C539.513 250.596 526.557 254.465 516.922 257.12C506.726 260.015 500.289 268.481 496.918 276.576C493.56 284.685 493.32 292.478 495.712 293.926C499.407 296.116 498.894 274.159 520.036 268.161C529.876 265.444 542.899 261.563 553.494 258.45C554.844 258.043 556.126 257.647 557.395 257.265C556.71 253.365 555.012 249.45 552.685 246.705C551.854 246.938 551.008 247.211 550.107 247.482Z" fill="#404040"/>
<path d="M597.554 334.934C591.83 332.795 591.977 330.054 593.998 327.017C590.915 327.955 581.205 330.891 571.467 333.827C559.659 337.27 547.852 340.713 547.852 340.713C538.297 343.397 528.493 340.693 521.592 334.382C520.183 333.084 518.236 332.609 516.424 333.111L502.566 336.859C503.196 337.5 503.841 338.127 504.513 338.727C504.631 338.826 504.736 338.937 504.841 339.048C505.421 339.578 506.029 340.056 506.636 340.56C506.861 340.742 507.071 340.938 507.296 341.12C507.865 341.555 508.447 341.978 509.03 342.4C509.321 342.598 509.599 342.809 509.891 343.007C510.434 343.387 511.005 343.742 511.563 344.083C511.908 344.309 512.254 344.508 512.613 344.721C513.144 345.034 513.677 345.32 514.209 345.606C514.622 345.821 515.048 346.049 515.461 346.264C515.954 346.508 516.461 346.739 516.941 346.969C517.448 347.2 517.942 347.417 518.45 347.621C518.878 347.796 519.319 347.958 519.76 348.146C520.375 348.38 520.977 348.6 521.62 348.808C521.968 348.927 522.303 349.031 522.638 349.135C523.375 349.359 524.126 349.57 524.891 349.768C525.159 349.83 525.414 349.905 525.682 349.967C526.488 350.153 527.281 350.324 528.088 350.456C528.371 350.505 528.639 350.566 528.909 350.601C529.649 350.717 530.403 350.82 531.158 350.896C531.535 350.934 531.899 350.985 532.29 351.01C532.897 351.068 533.518 351.086 534.126 351.117C534.652 351.146 535.179 351.175 535.706 351.177C536.138 351.189 536.558 351.161 536.991 351.146C537.694 351.14 538.411 351.12 539.102 351.072C539.319 351.052 539.536 351.031 539.739 351.023C542.747 350.786 545.75 350.265 548.775 349.433C548.802 349.434 548.816 349.421 548.843 349.421C548.843 349.421 561.032 345.881 573.221 342.341C578.922 340.613 584.609 338.899 589.042 337.554C589.533 337.406 589.997 337.257 590.46 337.135C594.758 335.786 597.554 334.934 597.554 334.934Z" fill="#CBCBCB"/>
<path d="M548.384 243.512C538.81 246.371 527.398 249.704 518.375 252.254C502.441 256.727 503.327 268.136 505.221 268.556C507.706 269.101 508.992 265.312 521.123 261.906C530.923 259.148 543.278 255.504 553.191 252.56C554.091 252.289 554.951 252.03 555.783 251.77C554.098 247.868 551.501 244.643 548.384 243.512Z" fill="#CBCBCB"/>
<path d="M552.587 248.217C551.198 246.243 549.526 244.694 547.656 243.91C547.429 243.808 547.186 243.801 546.94 243.875C537.436 246.696 527.289 249.728 518.361 252.24C506.298 255.636 502.884 264.77 505.116 266.133C506.936 267.227 509.175 262.276 517.708 259.873C527.506 257.17 540.489 253.301 551.043 250.2C551.738 249.99 551.344 250.046 552.026 249.85C552.736 249.627 552.989 248.809 552.587 248.217Z" fill="white"/>
<path d="M522.376 280.72C522.376 280.72 522.363 280.706 522.376 280.72C524.133 279.352 526.176 278.343 528.439 277.705C528.439 277.705 540.246 274.262 552.053 270.846C554.358 270.142 555.879 268.523 556.778 266.413C554.555 267.092 552.237 267.782 549.931 268.486C543.714 270.307 537.483 272.114 532.82 273.493C528.144 274.831 525.023 275.7 525.023 275.7C524 275.981 523.029 276.372 522.111 276.819L521.658 277.036C520.766 277.483 519.926 278.04 519.125 278.612C519.083 278.651 519.028 278.676 518.987 278.716C516.527 280.564 514.564 282.995 513.226 285.782C508.953 294.648 504.342 300.76 495.048 303.303L494.04 303.571C492.582 303.975 491.076 303.688 489.853 302.95C488.631 302.211 487.653 300.98 487.264 299.454C487.372 301.35 487.572 303.289 487.909 305.205L488.64 307.984L515.114 300.843C513.504 292.955 516.488 285.173 522.376 280.72Z" fill="#CBCBCB"/>
<path d="M512.431 301.536L495.78 306.028C499.827 304.942 503.559 303.049 506.932 300.497C508.798 299.078 512.016 299.536 512.431 301.536Z" fill="#8A8A8A"/>
<path d="M579.694 322.385C583.949 321.102 592.828 318.398 599.28 316.436C601.08 315.893 602.165 313.897 601.39 312.184C601.377 312.17 601.377 312.171 601.378 312.143C600.463 310.116 598.571 308.25 595.645 307.489C595.095 307.351 594.526 307.389 593.98 307.562C586.765 309.746 577.859 312.449 572.758 314.004C563.987 316.684 554.364 319.406 551.254 320.344C550.095 320.675 548.333 321.787 549.058 321.943C550.522 322.269 551.53 322.947 551.813 323.916C552.378 325.879 549.777 328.413 545.741 330.04C545.469 330.559 542.44 333.391 562.075 327.633C565.278 326.712 572.914 324.473 579.694 322.385Z" fill="white"/>
<path d="M541.128 324.093C547.023 322.655 548.147 324.458 539.552 326.683C536.787 327.401 529.799 327.82 527.521 326.632C527.521 326.632 531.208 324.441 534.133 322.416C531.194 324.454 537.751 324.914 541.128 324.093Z" fill="#8A8A8A"/>
<path d="M521.228 272.291C521.449 273.055 522.207 273.496 522.929 273.314C522.929 273.314 526.118 272.406 530.916 271.058C535.702 269.669 542.083 267.799 548.464 265.929C551.574 264.992 554.697 264.041 557.629 263.166C557.765 262.197 557.781 261.183 557.744 260.141C554.553 261.103 551.116 262.139 547.665 263.188C541.298 265.045 534.916 266.915 530.144 268.318C525.346 269.666 522.156 270.574 522.156 270.574C521.421 270.742 521.007 271.528 521.228 272.291Z" fill="#CBCBCB"/>
<path d="M599.381 310.612C598.676 309.726 597.497 309.368 596.419 309.702C588.727 312.047 578.167 315.364 572.343 317.129C563.302 319.801 554.262 322.445 554.262 322.445C553.526 322.667 553.111 323.453 553.319 324.203C553.54 324.966 554.325 325.408 555.062 325.186C555.062 325.186 564.115 322.528 573.156 319.856C579.307 317.993 590.876 314.381 598.46 312.059C599.796 311.665 599.628 310.93 599.381 310.612Z" fill="#CBCBCB"/>
<path d="M367.798 364.184C367.798 364.184 355.516 366.734 343.2 369.081C337.04 370.295 330.882 371.482 326.248 372.308C321.613 373.161 318.541 373.72 318.541 373.72L319.581 379.361C319.581 379.361 322.843 378.753 327.736 377.867C332.642 376.995 339.141 375.723 345.654 374.439C358.69 371.964 371.681 369.217 371.681 369.217C376.06 368.317 379.663 365.758 382.009 362.257C382.009 362.257 377.806 362.175 374.201 361.557C372.299 362.827 370.137 363.711 367.798 364.184Z" fill="#CBCBCB"/>
<path d="M359.278 295.705C354.382 296.699 348.629 297.898 342.74 299.092C336.84 300.246 330.817 301.41 325.405 302.47C319.993 303.557 315.169 304.404 311.73 305.048C308.278 305.678 306.172 306.063 306.172 306.063L308.224 317.344C308.224 317.344 310.304 316.958 313.756 316.328C317.195 315.684 322.019 314.837 327.431 313.75C332.855 312.704 338.906 311.514 344.834 310.361C350.763 309.153 356.598 307.957 361.589 306.925C383.093 302.425 392.808 322.215 395.077 318.576C397.946 313.792 379.966 291.37 359.278 295.705Z" fill="#404040"/>
<path d="M387.192 361.596C385.451 361.978 383.715 362.171 381.995 362.27C379.676 365.772 376.059 368.344 371.68 369.244C371.68 369.244 358.704 371.978 345.653 374.466C339.14 375.75 332.628 377.008 327.735 377.894C322.842 378.807 319.58 379.388 319.58 379.388L321.633 390.669C321.633 390.669 324.569 390.132 328.973 389.313C333.376 388.521 339.235 387.407 345.082 386.251C350.942 385.11 356.788 383.954 361.18 383.095C365.559 382.194 368.483 381.589 368.483 381.589C379.227 379.413 387.171 371.18 389.696 361.046L387.192 361.596Z" fill="#404040"/>
<path d="M394.82 362.885C392.984 363.278 391.472 364.599 390.825 366.392C387.649 375.223 380.202 382.145 370.465 384.134C370.465 384.134 367.446 384.75 362.93 385.673C358.403 386.556 352.379 387.747 346.329 388.937C340.305 390.128 334.255 391.291 329.716 392.106C325.177 392.948 322.146 393.495 322.146 393.495L323.699 401.963C323.699 401.963 326.811 401.391 331.514 400.527C336.203 399.675 342.429 398.477 348.67 397.265C361.136 394.882 373.567 392.295 373.567 392.295C377.92 391.394 382.004 389.93 385.751 387.998C389.5 386.011 392.91 383.554 395.939 380.722C401.985 375.043 406.451 367.886 408.847 359.844L394.82 362.885Z" fill="#CBCBCB"/>
<path d="M355.761 292.034C346.008 294.09 333.419 296.537 323.263 298.501C313.095 300.396 305.388 301.836 305.388 301.836L307.184 311.703C307.184 311.703 314.851 310.276 325.018 308.38C335.174 306.417 347.818 303.944 357.775 301.853C370.123 299.345 372.979 302.037 374.946 300.391C376.416 299.108 371.971 288.745 355.761 292.034Z" fill="#CBCBCB"/>
<path d="M355.761 292.034C346.008 294.09 333.419 296.537 323.263 298.501C313.095 300.396 305.388 301.836 305.388 301.836L306.684 308.89C306.684 308.89 308.764 308.504 312.189 307.873C315.628 307.229 320.411 306.395 325.81 305.321C331.207 304.274 337.244 303.097 343.145 301.943C349.047 300.735 354.854 299.538 359.832 298.52C368.522 296.757 372.78 300.044 373.887 298.237C375.265 295.938 368.041 289.537 355.761 292.034Z" fill="white"/>
<path d="M407.223 324.904L407.859 327.693C407.859 327.693 401.177 329.19 394.482 330.699C387.788 332.154 381.082 333.596 381.082 333.596C378.872 325.88 372.635 320.44 365.331 319.161C365.264 319.145 365.223 319.158 365.156 319.142C364.173 318.992 363.175 318.909 362.175 318.907L361.674 318.933C360.659 318.971 359.615 319.063 358.554 319.275C358.554 319.275 346.517 321.779 334.432 324.092C328.395 325.269 322.358 326.446 317.819 327.261C313.279 328.103 310.262 328.664 310.262 328.664L309.749 325.837C309.749 325.837 312.929 325.253 317.714 324.365C322.498 323.503 328.861 322.254 335.223 321.033C347.961 318.603 360.652 315.929 360.652 315.929C361.686 315.716 362.73 315.624 363.758 315.573L364.259 315.547C365.26 315.549 366.258 315.632 367.24 315.782C367.308 315.798 367.348 315.785 367.416 315.801C370.456 316.321 373.327 317.554 375.788 319.383C383.663 325.221 390.608 328.627 400.01 326.533L401.031 326.306C402.501 325.97 403.705 325.018 404.443 323.796C405.181 322.573 405.483 321.027 405.136 319.489C405.91 321.229 406.642 323.035 407.223 324.904Z" fill="#CBCBCB"/>
<path d="M383.776 332.998C383.776 332.998 387.993 332.093 392.197 331.174C396.414 330.268 400.619 329.322 400.619 329.322C396.536 330.258 392.332 330.258 388.161 329.543C385.875 329.152 383.211 331.035 383.776 332.998Z" fill="#8A8A8A"/>
<path d="M359.217 371.073C359.015 370.08 359.6 369.029 360.751 368.049C361.319 367.565 359.255 367.411 358.059 367.646C354.863 368.27 345.06 370.19 336.046 371.943C327.021 373.628 318.784 375.147 318.784 375.147L320.58 385.014C320.58 385.014 326.737 383.881 333.723 382.596C340.698 381.244 348.502 379.739 351.805 379.092C371.889 375.118 367.866 373.974 367.402 373.649C363.104 374.079 359.619 373.059 359.217 371.073Z" fill="white"/>
<path d="M368.751 366.28C362.843 367.704 362.673 369.835 371.342 367.855C374.119 367.206 380.54 364.404 382.008 362.284C382.008 362.284 377.729 362.038 374.201 361.584C377.729 362.038 372.128 365.458 368.751 366.28Z" fill="#8A8A8A"/>
<path d="M360.851 310.013C360.851 310.013 357.6 310.69 352.731 311.684C347.862 312.706 341.336 313.977 334.824 315.235C328.311 316.493 321.798 317.777 316.906 318.663C311.999 319.562 308.751 320.157 308.751 320.157L309.264 322.984C309.264 322.984 312.526 322.376 317.433 321.477C322.338 320.605 328.851 319.32 335.377 318.049C341.903 316.778 348.416 315.52 353.299 314.486C358.182 313.478 361.445 312.816 361.445 312.816C362.194 312.662 362.648 311.918 362.494 311.143C362.314 310.367 361.599 309.859 360.851 310.013Z" fill="#CBCBCB"/>
<path d="M356.341 370.922C356.341 370.922 347.083 372.722 337.851 374.523C328.58 376.256 319.324 377.975 319.324 377.975L319.837 380.802C319.837 380.802 329.107 379.069 338.391 377.351C347.65 375.551 356.908 373.751 356.908 373.751C357.669 373.611 358.164 372.854 357.998 372.065C357.832 371.276 357.089 370.768 356.341 370.922Z" fill="#CBCBCB"/>
<path d="M534.119 322.429C531.216 324.617 527.521 326.632 527.521 326.632C527.521 326.632 533.85 322.841 534.721 317.526C535.661 311.672 534.682 310.941 535.148 309.792C536.004 307.748 541.279 317.013 534.119 322.429Z" fill="#404040"/>
<path d="M448.34 318.186L452.439 334.893C452.439 334.893 471.664 330.205 490.778 325.175C500.354 322.681 509.88 320.051 517.047 318.122C524.19 316.112 528.96 314.79 528.96 314.79C533.131 313.613 534.328 308.227 531.173 305.107C527.02 301.012 520.99 299.161 515.156 300.803C515.156 300.803 511 301.94 504.745 303.638C498.505 305.323 490.178 307.61 481.829 309.734C473.479 311.912 465.129 314.063 458.852 315.598C452.507 317.144 448.34 318.186 448.34 318.186Z" fill="#404040"/>
<path d="M525.55 291.1C520.973 294.631 515.594 295.949 515.088 300.815C514.093 295.973 514.867 291.169 516.985 287.148C525.017 285.218 529.781 287.843 525.55 291.1Z" fill="#404040"/>
<path d="M524.458 297.991C532.467 301.048 537.289 305.406 539.378 309.82C539.978 311.067 539.883 311.997 540.071 311.584C541.596 308.383 542.292 304.916 542.011 301.528C541.926 300.295 541.704 299.085 541.348 297.845C540.992 296.604 540.524 295.468 539.974 294.411C537.977 290.541 534.721 287.202 530.501 285.404C527.309 284.054 524.406 284.375 527.743 286.324C530.973 288.216 531.545 290.409 526.486 293.318C521.439 296.267 520.099 296.323 524.458 297.991ZM533.099 298.849C535.716 296.248 536.451 294.188 536.101 290.892C535.995 289.862 540.238 296.474 540.542 299.052C540.844 301.683 539.937 303.59 538.203 304.175C536.743 304.66 531.985 299.953 533.099 298.849Z" fill="#CBCBCB"/>
<path d="M374.2 361.584C377.792 362.216 381.995 362.27 381.995 362.27C381.995 362.27 380.145 362.176 377.92 361.516C375.668 360.856 373.026 359.671 371.426 357.502C367.887 352.722 368.432 351.629 367.482 350.818C365.739 349.415 365.349 360.057 374.2 361.584Z" fill="#404040"/>
<path d="M487.885 287.386C487.693 288.381 487.596 289.419 487.484 290.47C487.484 290.47 482.09 291.882 473.985 293.986C465.892 296.131 455.067 298.805 444.228 301.493C433.39 304.126 422.527 306.704 414.374 308.59C406.209 310.436 400.779 311.671 400.779 311.671C400.196 310.802 399.64 309.934 399.014 309.132C399.014 309.132 404.594 307.861 412.95 305.967C421.306 304.046 432.442 301.394 443.552 298.688C454.65 295.941 465.761 293.18 474.045 290.987C482.354 288.821 487.885 287.386 487.885 287.386Z" fill="#8A8A8A"/>
<path d="M487.885 287.386C487.803 287.884 487.761 288.397 487.678 288.921L487.498 290.457L484.433 291.274C484.773 291.19 485.014 290.804 484.904 290.409C484.807 290.028 484.408 289.8 484.067 289.885C484.067 289.885 479.055 291.173 471.535 293.145C464.028 295.131 453.953 297.597 443.916 300.105C433.842 302.516 423.755 304.914 416.213 306.724C408.633 308.437 403.584 309.575 403.584 309.575C403.244 309.66 402.99 310.031 403.073 310.426C403.156 310.82 403.555 311.048 403.896 310.963L400.806 311.672L399.924 310.402C399.598 309.974 399.34 309.534 399.027 309.146C399.027 309.146 404.607 307.875 412.963 305.981C421.319 304.06 432.455 301.408 443.565 298.702C454.663 295.955 465.774 293.194 474.058 291.001C482.354 288.821 487.885 287.386 487.885 287.386Z" fill="#CBCBCB"/>
<path d="M487.883 305.177C488.045 306.102 488.18 307.052 488.396 308.004C488.396 308.004 483.396 309.306 475.891 311.238C468.385 313.224 458.35 315.678 448.327 318.172C438.267 320.571 428.22 322.984 420.679 324.766C413.126 326.481 408.077 327.619 408.077 327.619C407.834 326.665 407.522 325.777 407.224 324.877C407.224 324.877 412.286 323.725 419.88 321.999C427.449 320.19 437.55 317.779 447.651 315.368C457.715 312.861 467.818 310.396 475.338 308.397C482.87 306.492 487.883 305.177 487.883 305.177Z" fill="#8A8A8A"/>
<path d="M487.252 299.413C487.359 301.309 487.56 303.248 487.897 305.164C487.897 305.164 482.87 306.465 475.337 308.424C467.817 310.423 457.728 312.875 447.651 315.395C437.55 317.806 427.448 320.217 419.879 322.026C412.285 323.752 407.223 324.904 407.223 324.904C406.628 323.048 405.91 321.229 405.122 319.503C405.122 319.503 410.279 318.341 417.996 316.577C425.714 314.759 436.004 312.353 446.27 309.839C456.525 307.284 466.791 304.769 474.447 302.747C482.13 300.752 487.252 299.413 487.252 299.413Z" fill="#404040"/>
<path d="M487.188 296.478C487.187 297.451 487.199 298.439 487.252 299.413C487.252 299.413 482.144 300.739 474.461 302.734C466.805 304.756 456.538 307.27 446.284 309.826C436.018 312.34 425.728 314.746 418.01 316.564C410.28 318.314 405.136 319.489 405.136 319.489C404.729 318.585 404.281 317.721 403.847 316.843C403.847 316.843 409.086 315.656 416.925 313.883C424.752 312.041 435.192 309.599 445.608 307.048C456.012 304.457 466.428 301.906 474.207 299.847C481.998 297.828 487.188 296.478 487.188 296.478Z" fill="#CBCBCB"/>
<path d="M487.484 290.47C487.238 292.437 487.192 294.477 487.175 296.491C487.175 296.491 481.985 297.841 474.193 299.86C466.414 301.919 456.011 304.484 445.594 307.061C435.178 309.612 424.738 312.054 416.911 313.896C409.072 315.669 403.833 316.856 403.833 316.856C402.898 315.058 401.909 313.285 400.779 311.671C400.779 311.671 406.209 310.436 414.374 308.59C422.527 306.704 433.376 304.139 444.228 301.493C455.053 298.818 465.892 296.131 473.985 293.986C482.09 291.855 487.484 290.47 487.484 290.47Z" fill="white"/>
<path d="M520.148 329.149C520.148 329.149 512.041 331.334 499.886 334.632C487.707 337.848 471.457 342.042 455.145 346.03C422.533 354.076 389.696 361.046 389.696 361.046C379.573 363.268 371.493 356.098 378.606 354.641C378.606 354.641 387.952 352.627 401.938 349.599C408.933 348.017 417.071 346.171 425.808 344.18C434.52 342.107 443.804 339.888 453.103 337.657C471.662 333.098 490.159 328.334 503.99 324.585C517.833 320.876 527.02 318.276 527.02 318.276C533.985 316.328 530.111 326.369 520.148 329.149Z" fill="#CBCBCB"/>
<path d="M448.34 318.186L452.439 334.893C452.439 334.893 447.645 336.106 440.431 337.79C433.217 339.501 423.605 341.818 413.944 343.971C404.307 346.207 394.649 348.279 387.398 349.84C383.779 350.627 380.759 351.27 378.637 351.722C376.528 352.161 375.318 352.41 375.318 352.41C371.075 353.288 367.52 349.048 368.887 344.815C370.697 339.271 375.177 334.885 381.096 333.583C381.096 333.583 397.977 330.003 414.785 326.123C423.208 324.245 431.583 322.176 437.871 320.708C444.147 319.2 448.34 318.186 448.34 318.186Z" fill="#404040"/>
<path d="M523.33 308.908C523.33 308.908 521.068 309.546 517.115 310.648C513.163 311.723 507.495 313.262 500.709 315.094C487.124 318.769 468.94 323.447 450.722 327.922C441.587 330.104 432.479 332.287 423.917 334.324C415.343 336.265 407.341 338.088 400.469 339.633C386.715 342.601 377.532 344.592 377.532 344.592C375.369 345.057 373.541 342.814 374.373 340.716C375.47 337.841 377.857 335.72 380.795 335.102C380.795 335.102 389.298 333.253 402.06 330.459C408.415 329.007 415.859 327.317 423.808 325.492C431.744 323.6 440.223 321.642 448.68 319.548C482.513 311.322 516.068 301.992 516.068 301.992C518.958 301.184 522.06 301.909 524.352 303.976C526.052 305.499 525.456 308.321 523.33 308.908Z" fill="#CBCBCB"/>
<path d="M517.229 307.65C517.229 307.65 483.77 316.942 450.031 325.157C441.602 327.252 433.151 329.183 425.227 331.09C417.293 332.901 409.89 334.579 403.534 336.031C390.813 338.813 382.324 340.648 382.324 340.648C372.461 342.783 377.842 335.76 380.781 335.115C380.781 335.115 389.284 333.266 402.046 330.472C408.402 329.021 415.846 327.33 423.794 325.505C431.73 323.613 440.209 321.655 448.666 319.561C482.499 311.335 516.054 302.006 516.054 302.006C518.93 301.21 526.947 304.917 517.229 307.65Z" fill="white"/>
<path d="M367.333 329.831C373.035 330.889 378.388 329.516 381.096 333.583C379.733 328.825 376.831 324.942 373.106 322.36C365.085 324.386 362.089 328.868 367.333 329.831Z" fill="#404040"/>
<path d="M367.52 332.257C361.674 331.993 361.17 329.788 363.168 326.615C365.223 323.335 362.516 324.392 360.303 327.059C357.375 330.584 356.056 335.061 356.064 339.441C356.043 340.617 356.169 341.864 356.431 343.116C356.678 344.38 357.049 345.554 357.544 346.69C358.859 349.838 361.078 352.552 363.909 354.689C364.28 354.97 363.761 354.198 363.707 352.804C363.524 347.931 365.796 341.846 371.483 335.454C374.585 331.975 373.366 332.521 367.52 332.257ZM362.138 347.242C360.331 347.528 358.651 346.276 357.709 343.802C356.792 341.382 357.492 333.548 357.87 334.505C359.092 337.582 360.698 339.089 364.208 340.191C365.695 340.653 363.645 347.002 362.138 347.242Z" fill="#CBCBCB"/>
<path d="M511.155 293.779C510.112 297.129 509.677 298.144 507.441 300.174C509.322 299.188 512.024 299.712 512.404 301.535C512.404 301.535 512.709 299.408 512.874 296.992C513.188 293.149 512.005 291.059 511.155 293.779Z" fill="white"/>
<path d="M519.83 299.073C523.106 298.452 520.923 298.199 520.512 297.011C520.1 295.823 518.837 296.016 517.54 297.844C516.27 299.673 518.076 299.414 519.83 299.073Z" fill="white"/>
<path d="M376.205 320.855C370.676 317.112 366.63 316.332 367.208 314.578C367.786 312.824 372.802 312.347 378.516 317.177C384.229 322.007 384.742 325.78 383.189 326.668C381.636 327.528 381.151 324.202 376.205 320.855Z" fill="white"/>
<path d="M360.933 351.953C364.839 356.203 366.486 357.224 365.531 354.235C364.577 351.247 366.443 345.65 364.357 347.645C362.244 349.638 360.071 349.508 358.507 347.989C356.929 346.456 358.639 349.466 360.933 351.953Z" fill="white"/>
</svg>
