<svg width="309" height="322" viewBox="0 0 309 322" fill="none" xmlns="http://www.w3.org/2000/svg">
<path d="M87.4263 305.39C87.4263 305.39 76.0552 318.347 77.1636 319.188L81.2725 318.691L87.4263 305.39Z" fill="#8A8A8A"/>
<path d="M102.123 302.141C102.123 302.141 103.976 305.18 97.0392 310.856C90.5032 316.188 90.5414 312.404 84.9609 316.666L93.0067 304.779L102.123 302.141Z" fill="#8A8A8A"/>
<path d="M102.123 302.141L100.785 301.128C99.8867 301.664 98.8738 302.084 97.6889 302.332C94.784 302.982 90.0254 303.288 87.6365 305.18C85.3814 306.976 85.5151 310.264 84.0053 312.729C82.3427 315.443 79.9156 317.602 77.1445 319.188L79.7245 321.138C84.7698 319.513 88.9933 314.277 90.6369 310.187C91.5733 307.951 93.3316 305.983 95.6822 304.74C97.7653 303.651 99.9249 302.81 102.123 302.141Z" fill="#CBCBCB"/>
<path d="M100.785 301.128C99.8867 301.664 98.8738 302.084 97.6889 302.332C96.5805 302.581 95.2045 302.772 93.7903 303.02L95.9307 304.626C97.9374 303.594 100.001 302.772 102.123 302.122L100.785 301.128Z" fill="#404040"/>
<path d="M87.6365 305.18C85.9738 306.499 85.6107 308.658 84.9227 310.684L88.8023 313.627C89.5667 312.461 90.1974 311.276 90.6369 310.187C91.5734 307.951 93.3316 305.983 95.6823 304.741C95.7587 304.702 95.8352 304.664 95.9307 304.626L93.7903 303.021C91.497 303.441 89.1081 304.014 87.6365 305.18Z" fill="#404040"/>
<path d="M77.1636 319.208L79.7436 321.157C82.5529 320.259 85.0947 318.252 87.0822 315.92L83.604 313.283C81.9605 315.748 79.7245 317.717 77.1636 319.208Z" fill="#404040"/>
<path d="M100.498 302.715L99.3325 301.836C98.8165 302.046 98.2814 302.218 97.6889 302.352C94.784 303.001 90.0254 303.307 87.6365 305.199C87.56 305.256 87.5027 305.352 87.4263 305.409L91.5543 308.524C92.5481 306.996 93.9623 305.677 95.7014 304.76C97.2494 303.938 98.8738 303.288 100.498 302.715Z" fill="#CBCBCB"/>
<path d="M266.925 284.858C266.753 284.972 266.562 285.068 266.39 285.183C265.912 285.488 265.243 285.832 264.594 286.215C264.441 286.559 264.269 286.941 264.135 287.38C264.594 288.584 264.88 289.827 265.148 291.088C265.205 291.145 265.282 291.203 265.339 291.279C266.734 293.4 267.518 295.77 268.206 298.178C268.339 298.14 268.454 298.102 268.588 298.083L270.805 293.056L268.588 285.374C268.034 285.202 267.479 285.03 266.925 284.858Z" fill="#8A8A8A"/>
<path d="M269.104 295.12C268.875 296.152 268.588 297.165 268.282 298.159C268.836 298.006 269.391 297.853 269.964 297.7C271.397 295.082 273.882 291.527 273.939 288.661C273.958 287.992 273.824 287.38 273.595 286.807C271.378 286.176 269.142 285.546 266.944 284.858C267.307 285.928 267.709 286.922 268.167 287.763C269.257 289.922 269.658 292.521 269.104 295.12Z" fill="#CBCBCB"/>
<path d="M266.944 284.877C267.307 285.928 267.709 286.941 268.148 287.782C269.257 289.941 269.639 292.54 269.085 295.139C269.066 295.235 269.027 295.311 269.008 295.388L271.607 294.776C272.754 292.75 273.863 290.553 273.901 288.661C273.92 287.992 273.786 287.38 273.557 286.807C271.359 286.176 269.142 285.546 266.944 284.877Z" fill="#404040"/>
<path d="M269.104 295.12C268.875 296.171 268.588 297.165 268.263 298.159C268.836 298.006 269.391 297.834 269.964 297.681C271.397 295.063 273.882 291.508 273.939 288.642C273.939 288.546 273.92 288.451 273.92 288.336L268.875 289.502C269.391 291.279 269.505 293.209 269.104 295.12Z" fill="#CBCBCB"/>
<path d="M193.7 133.431L194.502 148.529C194.694 141.42 202.013 132.285 206.982 136.814C217.054 145.987 218.468 139.872 223.131 147.038C223.131 147.038 223.379 152.046 222.653 138.152C222.443 134.1 219.939 130.546 216.232 128.921C203.695 123.379 196.127 124.793 193.7 133.431Z" fill="#8A8A8A"/>
<path d="M217.723 129.59C216.251 128.902 214.856 128.31 213.499 127.794L214.244 141.802C218.258 143.465 219.92 142.108 223.131 147.038C223.131 147.038 223.322 151.281 222.577 136.833C222.424 133.718 220.551 130.928 217.723 129.59Z" fill="#CBCBCB"/>
<path d="M193.7 133.431L194.502 148.529C194.694 141.42 202.013 132.285 206.982 136.814C208.645 138.324 210.04 139.394 211.282 140.197L210.575 126.8C201.402 124.048 195.726 126.188 193.7 133.431Z" fill="#404040"/>
<path d="M194.98 130.316L195.687 143.446C197.407 139.318 200.714 135.725 203.886 135.61L203.351 125.634C199.51 125.749 196.719 127.278 194.98 130.316Z" fill="#CBCBCB"/>
<path d="M194.98 132.533L195.687 143.446C196.891 140.541 198.879 137.903 201.077 136.566L200.503 128.252C198.095 128.902 196.242 130.316 194.98 132.533Z" fill="white"/>
<path d="M194.503 148.529C194.961 157.378 223.704 158.161 223.131 147.038C222.558 135.916 205.95 133.221 199.433 135.82C192.916 138.419 194.503 148.529 194.503 148.529Z" fill="#8A8A8A"/>
<path d="M194.503 148.529C194.961 157.378 223.704 158.161 223.131 147.038C222.558 135.916 205.95 133.221 199.433 135.82C192.916 138.419 194.503 148.529 194.503 148.529Z" fill="#8A8A8A"/>
<path d="M215.066 140.35C209.849 138.305 203.619 138.19 200.179 139.566C197.847 140.502 196.547 142.375 195.859 144.42C195.133 146.542 196.375 148.453 197.063 147.038C197.828 145.452 199.032 144.076 200.924 143.312C204.154 142.031 209.849 142.05 214.856 143.751C218.067 144.86 218.659 141.745 215.066 140.35Z" fill="#404040"/>
<path d="M208.301 149.848C214.359 148.472 221.315 148.147 218.869 151.186C216.404 154.224 208.97 153.995 205.51 153.498C202.051 153.001 206.237 150.306 208.301 149.848Z" fill="#CBCBCB"/>
<path d="M298.784 190.819C295.115 174.287 270.519 178.568 270.423 193.609C271.264 195.176 271.417 196.991 271.761 198.788C271.876 199.399 272.029 199.992 272.201 200.603C273.902 200.451 275.603 200.298 277.303 200.145C280.17 196.972 283.935 194.316 287.088 192.615C287.719 192.271 288.522 192.691 288.522 193.437C288.522 193.647 288.503 194.106 288.445 194.622C288.77 194.373 289.095 194.163 289.267 194.029C289.745 193.685 290.567 194.029 290.662 194.603C290.834 195.635 290.968 196.667 291.102 197.699L299.874 195.749L298.784 190.819Z" fill="#8A8A8A"/>
<path d="M287.088 192.634C287.203 192.577 287.318 192.558 287.432 192.558C286.763 189.576 285.865 185.448 284.719 180.269C280.724 180.46 276.749 182.104 273.997 184.932C275.87 193.398 276.979 198.425 277.361 200.106C280.208 196.934 283.954 194.335 287.088 192.634Z" fill="#404040"/>
<path d="M277.303 200.164C278.794 198.52 280.495 197.011 282.253 195.73C281.584 192.711 280.533 187.933 279.1 181.511C275.163 183.136 271.914 186.251 270.825 190.551C272.01 195.921 272.717 199.055 273.042 200.565C274.456 200.412 275.889 200.279 277.303 200.164Z" fill="#CBCBCB"/>
<path d="M277.323 200.164C278.087 199.323 278.89 198.501 279.769 197.737C279.176 195.023 278.393 191.564 276.826 184.416C274.112 186.174 272.01 188.774 271.188 192.061C272.373 197.431 272.736 199.036 273.061 200.546C274.456 200.412 275.889 200.278 277.323 200.164Z" fill="white"/>
<path d="M297.083 196.38L299.874 195.768L298.784 190.818C298.02 187.359 296.319 184.818 294.14 183.078L297.083 196.38Z" fill="#CBCBCB"/>
<path d="M287.662 180.403L291.484 197.641L294.274 197.03L290.777 181.206C289.783 180.804 288.732 180.556 287.662 180.403Z" fill="#CBCBCB"/>
<path d="M299.893 195.768C296.3 179.543 272.583 183.365 271.57 197.718C271.627 198.081 271.685 198.444 271.761 198.807C271.876 199.419 272.029 200.011 272.201 200.623C273.902 200.47 275.622 200.317 277.323 200.164C280.189 196.991 283.954 194.335 287.088 192.634C287.719 192.29 288.522 192.711 288.522 193.456C288.522 193.666 288.503 194.125 288.445 194.641C288.77 194.392 289.095 194.182 289.267 194.048C289.745 193.704 290.567 194.048 290.662 194.622C291.369 198.673 291.503 202.725 291.751 206.757C297.026 204.617 300.982 200.68 299.893 195.768Z" fill="#8A8A8A"/>
<path d="M300.007 196.533C295.574 181.55 272.812 185.601 271.991 199.724C272.067 200.03 272.124 200.317 272.201 200.623C272.583 200.584 272.965 200.565 273.347 200.527C276.711 189.5 294.618 186.71 300.027 198.176C300.065 197.622 300.065 197.087 300.007 196.533Z" fill="#404040"/>
<path d="M189.865 230.497L189.789 223.388C189.789 223.388 195.599 213.24 196.86 217.979C198.121 222.719 195.79 224.286 195.656 226.427C195.522 228.586 189.865 230.497 189.865 230.497Z" fill="#CBCBCB"/>
<path d="M196.745 217.578C197.682 220.483 194.28 221.572 192.694 223.426C192.159 224.057 191.738 224.726 191.432 225.414L185.833 216.355L189.311 214.195C192.292 213.756 195.694 214.291 196.745 217.578Z" fill="#8A8A8A"/>
<path d="M192.713 223.445C192.178 224.076 191.757 224.745 191.451 225.433L189.617 222.471C189.617 222.471 192.541 220.655 196.841 218.018C197.338 220.598 194.203 221.668 192.713 223.445Z" fill="#404040"/>
<path d="M186.788 217.884L185.852 216.355L189.33 214.195C190.458 214.023 191.643 213.985 192.732 214.195L186.788 217.884Z" fill="#CBCBCB"/>
<path d="M188.68 220.942L187.744 219.413L194.853 215.036C195.35 215.361 195.809 215.801 196.153 216.336L188.68 220.942Z" fill="#CBCBCB"/>
<path d="M190.343 228.223C190.706 230.019 189.865 230.497 189.865 230.497C189.865 230.497 182.985 218.132 185.871 216.355C189.235 216.546 191.203 219.375 191.471 225.414C191.451 225.433 189.98 226.427 190.343 228.223Z" fill="#8A8A8A"/>
<path d="M191.432 227.459C193.879 226.197 195.044 226.006 195.828 224.171C196.592 222.337 196.726 221.419 194.853 223.006C192.961 224.611 191.853 226.216 191.432 226.388C190.993 226.56 190.591 227.898 191.432 227.459Z" fill="white"/>
<path d="M185.795 219.336C186.139 217.903 188.126 217.253 189.483 220.636C190.84 224.019 191.375 224.573 190.419 225.872C189.464 227.172 188.757 226.904 188.699 225.089C188.642 223.273 188.47 220.349 187.495 220.636C186.521 220.923 185.546 220.368 185.795 219.336Z" fill="#404040"/>
<path d="M238.636 11.1545L236.495 6.70167C236.495 6.70167 239.476 -0.789901 242.133 1.94299C244.789 4.67588 242.859 6.10921 243.356 7.48521C243.853 8.88032 238.636 11.1545 238.636 11.1545Z" fill="#CBCBCB"/>
<path d="M241.904 1.7137C243.7 3.35725 240.547 4.69501 239.476 6.16656C239.113 6.66345 238.884 7.17948 238.769 7.65726L230.456 3.03234L233.38 1.00657C236.266 0.165677 239.878 -0.159192 241.904 1.7137Z" fill="#8A8A8A"/>
<path d="M239.496 6.16653C239.132 6.66342 238.903 7.17945 238.788 7.65723L236.075 6.14743C236.075 6.14743 238.54 4.44655 242.152 1.94299C243.394 3.49099 240.489 4.77142 239.496 6.16653Z" fill="#404040"/>
<path d="M231.87 3.81595L230.475 3.03238L233.399 1.00659C234.488 0.681696 235.692 0.433257 236.858 0.356812L231.87 3.81595Z" fill="#CBCBCB"/>
<path d="M234.66 5.36392L233.265 4.58039L239.228 0.452393C239.84 0.567059 240.413 0.739064 240.929 1.02573L234.66 5.36392Z" fill="#CBCBCB"/>
<path d="M238.464 9.64478C239.343 10.6959 238.636 11.1737 238.636 11.1737C238.636 11.1737 228.048 4.71413 230.475 3.05146C233.953 2.51635 236.782 3.93057 238.788 7.67634C238.788 7.65723 237.584 8.57456 238.464 9.64478Z" fill="#8A8A8A"/>
<path d="M239.362 8.93768C241.483 7.67636 242.63 7.33235 242.878 6.03281C243.127 4.73326 242.993 4.12172 241.54 5.4977C240.088 6.87369 239.419 8.09678 239.018 8.28789C238.636 8.45989 238.616 9.37723 239.362 8.93768Z" fill="white"/>
<path d="M231.259 4.92439C231.182 3.96883 233.036 3.16615 235.387 5.03905C237.737 6.91195 238.444 7.16041 237.852 8.15419C237.26 9.14798 236.457 9.12887 235.884 7.9822C235.31 6.83552 234.278 5.03906 233.361 5.40217C232.444 5.76528 231.316 5.61239 231.259 4.92439Z" fill="#404040"/>
<path d="M196.396 305.357L192.645 297.554C192.645 297.554 197.869 284.426 202.524 289.215C207.179 294.004 203.797 296.516 204.667 298.927C205.538 301.372 196.396 305.357 196.396 305.357Z" fill="#CBCBCB"/>
<path d="M202.122 288.813C205.27 291.693 199.745 294.037 197.869 296.616C197.233 297.487 196.831 298.391 196.63 299.228L182.062 291.124L187.186 287.574C192.243 286.1 198.573 285.531 202.122 288.813Z" fill="#8A8A8A"/>
<path d="M197.903 296.616C197.266 297.487 196.865 298.391 196.664 299.228L191.908 296.583C191.908 296.583 196.228 293.602 202.558 289.215C204.734 291.928 199.644 294.171 197.903 296.616Z" fill="#404040"/>
<path d="M184.541 292.497L182.096 291.124L187.22 287.574C189.129 287.005 191.239 286.569 193.281 286.435L184.541 292.497Z" fill="#CBCBCB"/>
<path d="M189.43 295.209L186.985 293.836L197.434 286.603C198.505 286.804 199.51 287.105 200.414 287.607L189.43 295.209Z" fill="#CBCBCB"/>
<path d="M196.094 302.711C197.635 304.553 196.396 305.39 196.396 305.39C196.396 305.39 177.843 294.071 182.096 291.157C188.191 290.22 193.147 292.698 196.664 299.262C196.664 299.228 194.554 300.836 196.094 302.711Z" fill="#8A8A8A"/>
<path d="M197.668 301.472C201.386 299.262 203.395 298.659 203.83 296.382C204.266 294.104 204.031 293.033 201.486 295.444C198.941 297.855 197.769 299.998 197.065 300.333C196.396 300.635 196.362 302.242 197.668 301.472Z" fill="white"/>
<path d="M183.469 294.439C183.335 292.765 186.584 291.358 190.703 294.64C194.822 297.922 196.061 298.357 195.023 300.099C193.985 301.84 192.578 301.807 191.573 299.797C190.569 297.788 188.76 294.64 187.153 295.276C185.545 295.913 183.569 295.645 183.469 294.439Z" fill="#404040"/>
<path d="M80.4789 186.517C81.4918 183.364 82.4283 180.937 84.5496 178.319C88.7923 173.14 94.6403 169.948 101.138 170.158L107.865 176.694L87.8941 197.258L79.8865 189.499C80.1349 188.333 80.3069 187.091 80.4789 186.517Z" fill="#8A8A8A"/>
<path d="M101.138 170.177L107.865 176.713L103.871 180.822L94.1052 171.343C96.3412 170.521 98.6918 170.101 101.138 170.177Z" fill="#CBCBCB"/>
<path d="M94.1243 171.343L103.89 180.822L95.9016 189.059L84.7025 178.185C87.3207 175.032 90.5314 172.681 94.1243 171.343Z" fill="#404040"/>
<path d="M80.4789 186.517C81.2051 184.262 81.8932 182.389 83.0016 180.536L93.8949 191.104L87.9131 197.277L79.9056 189.518C80.1349 188.333 80.3069 187.091 80.4789 186.517Z" fill="#CBCBCB"/>
<path d="M99.1696 170.254C103.622 174.573 106.89 177.745 106.89 177.745L99.8958 184.95C99.8958 184.95 94.6785 179.886 88.8496 174.229C91.8883 171.936 95.4047 170.521 99.1696 170.254Z" fill="white"/>
<path d="M95.6341 170.808L104.884 179.79L102.896 181.854L92.6719 171.936C93.6274 171.496 94.6212 171.095 95.6341 170.808Z" fill="#CBCBCB"/>
<path d="M90.9518 184.511C88.8114 187.129 87.894 189.556 86.8811 192.709C86.8047 192.92 86.7474 193.225 86.6709 193.588C86.4225 194.888 86.8429 196.245 87.7985 197.162C88.754 198.08 90.1109 198.481 91.3914 198.194C91.7545 198.118 92.0794 198.041 92.2896 197.946C95.4047 196.837 97.8127 195.844 100.354 193.627C105.419 189.231 108.419 183.288 107.999 176.828L107.54 176.369C101.042 176.14 95.1945 179.351 90.9518 184.511Z" fill="#8A8A8A"/>
<path d="M107.54 176.369L107.999 176.828C108.018 177.019 107.999 177.191 107.999 177.382C102.246 177.86 96.838 181.204 92.6336 186.173C90.4549 188.753 89.4229 191.066 88.238 194.066C88.1616 194.257 88.066 194.563 87.9705 194.907C87.7029 195.901 87.8558 196.876 88.3527 197.64C88.1616 197.506 87.9514 197.372 87.7794 197.22C86.8238 196.302 86.4034 194.945 86.6518 193.646C86.7283 193.283 86.7856 192.977 86.8621 192.767C87.875 189.613 88.7923 187.186 90.9327 184.568C95.1945 179.351 101.042 176.14 107.54 176.369Z" fill="#404040"/>
<path d="M308.872 65.8139C308.872 65.8139 304.42 62.1446 302.852 64.4761C301.285 66.8077 303.254 69.617 304.63 69.1202C305.987 68.6424 308.872 65.8139 308.872 65.8139Z" fill="#CBCBCB"/>
<path d="M308.872 65.814C309.025 68.1646 307.229 69.3686 307.229 69.3686L304.63 69.1202L306.484 66.4446L307.573 66.5784L308.872 65.814Z" fill="#8A8A8A"/>
<path d="M307.573 66.5784L306.14 65.7566C306.14 65.7566 302.05 67.5531 303.063 68.5277C304.076 69.5024 304.611 69.1393 304.611 69.1393L306.503 66.9797L307.573 66.5784Z" fill="#404040"/>
<path d="M305.509 64.4379C306.904 64.7628 306.063 65.3361 305.146 65.5463C304.228 65.7374 302.298 63.7117 305.509 64.4379Z" fill="white"/>
<path d="M144.548 72.0007C143.612 71.4465 141.586 74.122 141.586 74.122L147.3 78.8233C147.3 78.8233 148.523 79.0527 149.173 77.3709C149.842 75.6891 146.364 73.0518 144.548 72.0007Z" fill="#404040"/>
<path d="M132.069 69.5927L141.605 74.122C141.605 74.122 145.485 72.5549 144.567 72.0007C142.541 70.7967 138.012 69.306 134.075 69.1531L132.069 69.5927Z" fill="#CBCBCB"/>
<path d="M139.981 75.8229C137.229 74.1793 134.859 72.1918 132.508 70.2042C132.298 70.0322 132.069 69.822 132.069 69.5927C135.413 69.5353 138.757 71.026 141.548 72.7842C142.79 73.5678 148.313 77.0269 148.045 78.2882C147.625 80.2184 141.051 76.4727 139.981 75.8229Z" fill="#8A8A8A"/>
<path d="M142.541 73.434C140.057 71.6758 142.675 71.3891 144.013 72.4211C145.332 73.4531 149.918 78.6131 142.541 73.434Z" fill="white"/>
<path d="M10.3615 217.287C9.27216 217.497 10.9157 222.064 10.9157 222.064L19.0571 222.275C19.0571 222.275 19.9744 221.472 18.5984 219.121C17.2033 216.771 12.5019 216.885 10.3615 217.287Z" fill="#404040"/>
<path d="M0.825073 225.294L10.9157 222.064C10.9157 222.064 11.47 217.095 10.3615 217.287C7.97262 217.726 3.84462 219.962 1.47484 223.115L0.825073 225.294Z" fill="#CBCBCB"/>
<path d="M11.7948 225.237C8.52684 225.81 5.10596 225.676 1.7233 225.562C1.41752 225.543 1.05441 225.523 0.825073 225.275C2.65974 222.408 6.09974 221.147 9.50151 220.669C11.0113 220.459 17.7384 219.465 18.9042 221.051C20.6815 223.498 13.0562 225.027 11.7948 225.237Z" fill="#8A8A8A"/>
<path d="M10.7246 220.516C7.49483 220.746 8.6606 218.223 10.4953 218.204C12.3299 218.185 20.2993 219.847 10.7246 220.516Z" fill="white"/>
</svg>
