<svg width="315" height="298" viewBox="0 0 315 298" fill="none" xmlns="http://www.w3.org/2000/svg">
<path d="M8.69788 220.188C7.18811 215.372 4.30237 211.244 1.70327 207.02C0.0979435 207.441 -0.0358606 213.193 2.60146 222.672C5.23878 232.152 8.83166 234.789 10.0739 234.464C10.2077 233.833 10.3223 233.184 10.3797 232.534C10.6854 228.425 9.92098 224.106 8.69788 220.188Z" fill="#8A8A8A"/>
<path d="M8.69786 220.188C7.18808 215.372 4.30233 211.244 1.70322 207.02C1.22545 207.154 0.862307 207.785 0.690308 208.855C3.04097 212.62 5.50631 216.385 6.84408 220.685C8.06719 224.603 8.83164 228.922 8.52587 233.031C8.50676 233.317 8.43033 233.585 8.3921 233.852C9.09921 234.407 9.69165 234.579 10.0548 234.483C10.1885 233.852 10.3032 233.203 10.3605 232.553C10.6854 228.425 9.92097 224.106 8.69786 220.188Z" fill="#CBCBCB"/>
<path d="M20.3557 224.985L7.18811 205.587C7.18811 205.587 8.44944 215.372 13.6668 220.36C18.8841 225.348 20.3557 224.985 20.3557 224.985Z" fill="#8A8A8A"/>
<path d="M10.4179 211.894C9.25212 209.849 8.18189 207.727 7.20722 205.587L1.72235 207.04C4.32146 211.263 7.20724 215.391 8.71702 220.207C9.94013 224.125 10.7045 228.444 10.3988 232.553C10.3414 233.222 10.2268 233.852 10.093 234.483L14.9663 233.203C16.7628 230.489 18.5783 227.737 20.3939 225.004C16.6481 220.972 13.189 216.748 10.4179 211.894Z" fill="#8A8A8A"/>
<path d="M8.69789 220.188C8.96544 221.029 9.1948 221.908 9.40502 222.768L16.7054 220.838C14.393 218.048 12.2334 215.085 10.3988 211.875C10.1886 211.531 10.0166 211.148 9.82547 210.804L4.85657 212.123C6.40457 214.684 7.79967 217.321 8.69789 220.188Z" fill="#404040"/>
<path d="M7.60858 217.321L12.9788 215.907C12.0806 214.608 11.2015 213.27 10.4179 211.875C9.48147 210.25 8.64057 208.568 7.8379 206.887L2.52502 208.282C4.32147 211.225 6.21347 214.149 7.60858 217.321Z" fill="#CBCBCB"/>
<path d="M6.32814 214.703L11.3352 213.384C11.0295 212.887 10.7046 212.41 10.4179 211.894C9.48147 210.269 8.64057 208.588 7.8379 206.906L2.52502 208.301C3.80547 210.403 5.16236 212.505 6.32814 214.703Z" fill="white"/>
<path d="M10.3988 231.425C10.3797 231.788 10.4179 232.171 10.3797 232.534C10.3223 233.203 10.2077 233.833 10.0739 234.464L14.9472 233.183C15.7308 231.999 16.5335 230.795 17.317 229.591L10.3988 231.425Z" fill="#CBCBCB"/>
<path d="M18.8077 223.265L9.97833 225.596C10.1312 226.552 10.2459 227.507 10.3223 228.463L19.6868 225.998C19.9161 225.654 20.1263 225.329 20.3557 224.985C19.8397 224.411 19.3237 223.838 18.8077 223.265Z" fill="#CBCBCB"/>
<path d="M180.027 7.87773C181.289 9.2155 182.072 10.5724 186.869 12.1395C195.374 14.9297 196.941 11.7191 196.941 11.7191L189.812 5.45064L181.824 5.24042C181.212 6.13864 180.62 7.01773 180.027 7.87773Z" fill="#8A8A8A"/>
<path d="M180.83 6.71192C181.958 6.69281 183.028 6.59726 183.964 6.42526C186.353 6.02393 188.952 6.42527 191.265 7.74394C193.31 8.90972 195.183 10.2666 196.941 11.7573L197.075 10.0755C196.138 9.61683 195.24 8.96705 194.38 8.12616C192.278 6.02393 189.449 2.18258 186.563 1.1888C185.933 0.978573 185.321 0.921249 184.691 0.959471C183.41 2.87059 182.13 4.8008 180.83 6.71192Z" fill="#CBCBCB"/>
<path d="M197.075 10.0564C196.138 9.5977 195.24 8.94794 194.38 8.10705C193.577 7.30438 192.679 6.25326 191.704 5.20215L191.494 7.8777C193.443 9.00526 195.259 10.3048 196.941 11.7382L197.075 10.0564Z" fill="#404040"/>
<path d="M180.83 6.69284C181.939 6.67373 183.028 6.5973 183.964 6.40619C186.353 6.00485 188.952 6.40616 191.265 7.72482C191.341 7.76305 191.418 7.82038 191.494 7.87772L191.704 5.20218C190.118 3.5013 188.36 1.7813 186.563 1.16975C185.933 0.959524 185.321 0.902182 184.691 0.921293C183.429 2.87062 182.13 4.80085 180.83 6.69284Z" fill="#404040"/>
<path d="M195.584 10.668L195.699 9.21554C195.259 8.89065 194.8 8.52753 194.38 8.10709C192.278 6.00487 189.449 2.16353 186.563 1.16976C186.468 1.13154 186.372 1.13154 186.277 1.11243L185.875 6.27241C187.691 6.29152 189.564 6.76929 191.284 7.72485C192.794 8.60396 194.208 9.61686 195.584 10.668Z" fill="#CBCBCB"/>
<path d="M77.6463 135.073C70.0783 139.66 82.9783 165.364 92.5147 159.593C102.032 153.821 102.108 138.226 96.7383 133.697C91.368 129.187 83.6854 131.423 83.6854 131.423L77.6463 135.073Z" fill="#8A8A8A"/>
<path d="M96.0693 123.912L77.6462 135.073C83.9911 131.882 95.5151 134.003 93.8716 140.52C90.5463 153.726 96.6236 152.082 92.5147 159.574C92.5147 159.574 93.7187 158.847 105.625 151.623C109.084 149.521 111.033 145.622 110.708 141.59C109.638 127.945 104.803 121.944 96.0693 123.912Z" fill="#8A8A8A"/>
<path d="M110.804 143.253C110.709 141.628 110.575 140.119 110.384 138.685L92.8969 149.292C93.3365 153.611 95.3241 154.433 92.4956 159.593C92.4956 159.593 94.3685 158.465 106.733 150.955C109.409 149.349 110.976 146.368 110.804 143.253Z" fill="#CBCBCB"/>
<path d="M96.0694 123.912L77.6462 135.073C83.9911 131.882 95.5151 134.003 93.8716 140.52C93.3174 142.699 93.0498 144.438 92.916 145.909L109.868 135.627C107.976 126.244 103.408 122.269 96.0694 123.912Z" fill="#404040"/>
<path d="M99.3947 123.568L82.6534 133.716C87.1062 133.277 91.8458 134.5 93.4511 137.233L107.479 128.728C105.587 125.384 102.892 123.645 99.3947 123.568Z" fill="#CBCBCB"/>
<path d="M96.7764 124.696L82.6534 133.697C85.7685 133.391 89.0365 133.888 91.2725 135.169L103.16 127.505C101.459 125.728 99.3373 124.772 96.7764 124.696Z" fill="white"/>
<path d="M92.916 145.928C92.916 145.928 92.744 148.164 92.8969 149.292C93.0498 150.419 82.7871 147.4 79.5764 144.266C76.3657 141.112 86.8387 147.075 92.916 145.928Z" fill="white"/>
<path d="M81.4494 151.069C86.0934 152.216 92.3236 154.28 92.5338 156.191C92.744 158.102 90.0111 159.994 86.0169 156.917C82.0227 153.859 78.7356 150.4 81.4494 151.069Z" fill="#CBCBCB"/>
<path d="M218.763 167.478L219.584 172.677L247.888 168.186C247.888 168.186 247.926 168.453 247.066 162.987C246.588 160.006 237.95 163.847 233 161.611C225.394 158.171 218.036 162.911 218.763 167.478Z" fill="#8A8A8A"/>
<path d="M238.256 162.318L239.403 169.523L247.888 168.166C247.888 168.147 247.812 167.727 247.066 162.968C246.741 160.923 242.499 162.127 238.256 162.318Z" fill="#CBCBCB"/>
<path d="M233 161.611C225.394 158.171 218.036 162.911 218.763 167.478L219.584 172.677L236.574 169.982L235.351 162.223C234.51 162.108 233.727 161.936 233 161.611Z" fill="#404040"/>
<path d="M219.68 164.077L221.018 172.466L226.675 171.568L224.955 160.77C222.623 161.325 220.731 162.567 219.68 164.077Z" fill="white"/>
<path d="M237.74 167.402C233.325 167.173 228.949 165.644 225.815 166.141C224.4 166.37 218.572 166.217 219.604 172.677C220.636 179.155 248.672 172.982 247.907 168.186C247.659 166.714 242.747 167.65 237.74 167.402Z" fill="#8A8A8A"/>
<path d="M219.584 172.677C219.909 174.76 223.063 175.524 227.133 175.467C223.999 175.085 221.744 174.129 221.457 172.39C220.922 169.026 226.56 167.956 227.974 167.727C230.592 167.306 233.383 168.166 238.848 167.44C238.466 167.44 238.103 167.421 237.721 167.402C233.306 167.173 228.93 165.644 225.795 166.141C224.381 166.37 218.552 166.198 219.584 172.677Z" fill="#CBCBCB"/>
<path d="M35.7659 131.238C33.1285 127.034 28.0641 126.059 26.1147 128.429L23.5539 131.602L29.3445 136.303C31.4085 134.487 33.5108 132.729 35.7659 131.238Z" fill="#8A8A8A"/>
<path d="M35.7659 131.238C33.1285 127.034 28.0641 126.059 26.1147 128.429L23.5539 131.602L29.3445 136.303C31.4085 134.487 33.5108 132.729 35.7659 131.238Z" fill="#404040"/>
<path d="M28.561 127.187L24.4138 132.289L27.8539 135.08L33.1859 128.505C31.6761 127.473 29.9943 127.034 28.561 127.187Z" fill="white"/>
<path d="M23.8023 134.659C25.5796 135.194 27.3378 135.844 29.077 136.551C30.1281 135.615 31.1983 134.697 32.3067 133.799C31.7525 132.997 31.1792 132.289 30.5676 131.793C29.7076 131.085 26.7836 127.645 23.592 131.601C22.9614 132.347 23.1143 133.417 23.8023 134.659Z" fill="#8A8A8A"/>
<path d="M23.8023 134.659C24.0507 134.736 24.28 134.793 24.5285 134.87C24.2227 133.933 24.2418 133.111 24.7005 132.519C26.3632 130.474 29.8987 133.169 30.7587 133.857C30.9881 134.048 31.2174 134.258 31.4276 134.487C31.7143 134.258 32.001 134.01 32.2876 133.78C31.7334 132.978 31.1601 132.27 30.5485 131.774C29.6885 131.066 26.7645 127.626 23.5729 131.582C22.9614 132.347 23.1334 133.436 23.8023 134.659Z" fill="#CBCBCB"/>
<path d="M259.273 281.456C259.521 281.341 266.191 276.372 266.191 276.372L270.586 277.175L261.7 285.889C261.719 285.87 259.005 281.57 259.273 281.456Z" fill="#CBCBCB"/>
<path d="M254.629 269.435L259.578 268.422L265.293 296.515L260.324 297.528C242.55 301.159 236.836 273.066 254.629 269.435Z" fill="#8A8A8A"/>
<path d="M244.863 277.289C255.489 275.13 260.744 274.06 260.744 274.06L263.018 285.297C263.018 285.297 256.693 286.577 244.958 288.966C243.506 285.24 243.391 280.94 244.863 277.289Z" fill="#404040"/>
<path d="M248.704 272.11C256.826 270.467 259.884 269.836 259.884 269.836L261.891 279.659C261.891 279.659 255.565 280.94 243.831 283.328C243.697 279.086 245.226 274.843 248.704 272.11Z" fill="#CBCBCB"/>
<path d="M250.424 271.652C258.546 270.008 259.865 269.836 259.865 269.836L261.298 276.85C261.298 276.85 257.094 277.595 245.723 279.908C246.239 276.716 247.768 273.754 250.424 271.652Z" fill="white"/>
<path d="M264.719 293.725L265.293 296.534L260.324 297.547C256.845 298.254 253.845 297.738 251.361 296.439L264.719 293.725Z" fill="#CBCBCB"/>
<path d="M246.296 291.623L263.592 288.106L264.165 290.916L248.284 294.145C247.519 293.381 246.869 292.521 246.296 291.623Z" fill="#CBCBCB"/>
<path d="M265.292 296.534C247.5 300.146 241.786 272.053 259.578 268.441C260.4 268.269 261.203 268.25 261.967 268.345L262.712 282.488L270.567 277.156C273.415 284.896 272.421 295.082 265.292 296.534Z" fill="#8A8A8A"/>
<path d="M267.529 295.674C267.07 295.942 266.573 296.152 266.038 296.324C249.507 298.503 244.289 272.779 260.343 268.345C260.897 268.288 261.432 268.288 261.967 268.364C249.239 274.098 253.558 295.368 267.529 295.674Z" fill="#404040"/>
<path d="M167.233 94.3224C155.174 84.2891 146.631 89.9651 148.886 106.152C149.192 110.701 167.539 104.738 173.693 94.8957C173.712 94.8575 173.712 94.8384 173.731 94.8193C172.221 96.8259 169.526 96.2335 167.233 94.3224Z" fill="#8A8A8A"/>
<path d="M168.571 95.2397C163.812 101.451 154.429 105.827 148.982 106.534C150.281 110.357 167.749 104.47 173.712 94.9148C173.731 94.8766 173.731 94.8575 173.75 94.8384C172.508 96.4437 170.501 96.3481 168.571 95.2397Z" fill="#404040"/>
<path d="M167.711 96.2526C169.393 97.6477 171.208 97.3993 172.661 96.3673C173.024 95.8895 173.387 95.4117 173.693 94.8957C173.712 94.8575 173.712 94.8384 173.731 94.8193C172.221 96.8259 169.526 96.2526 167.233 94.3224C155.174 84.2891 146.631 89.9651 148.886 106.152C148.905 106.496 149.039 106.764 149.249 106.974C147.549 91.666 155.919 86.4486 167.711 96.2526Z" fill="#CBCBCB"/>
<path d="M151.772 101.814C153.033 98.9855 156.454 94.1886 160.353 94.5517C164.252 94.9148 160.028 96.0615 156.703 98.9282C153.397 101.795 150.931 103.687 151.772 101.814Z" fill="#CBCBCB"/>
<path d="M173.845 94.6664C173.96 94.4179 174.094 94.1504 174.247 93.9019C175.298 92.201 171.418 90.4811 169.106 89.6784C165.437 88.4171 162.646 86.5059 160.143 83.9642C157.544 82.225 155.04 81.0019 151.81 83.3526C150.645 84.2126 149.708 85.3019 148.944 86.5442C147.147 89.5255 146.67 93.0993 147.243 96.5201C147.759 99.4824 148.313 102.769 148.886 106.152C146.631 89.965 155.174 84.2699 167.233 94.3224C169.603 96.2908 172.374 96.8642 173.845 94.6664Z" fill="#8A8A8A"/>
<path d="M148.733 86.9073C147.09 89.7931 146.689 93.2331 147.243 96.5011C147.529 98.202 147.835 99.9984 148.16 101.852C148.409 103.266 148.638 104.681 148.886 106.133C147.835 98.546 149.173 93.3096 152.097 90.8633C151.963 90.1371 151.849 89.4109 151.734 88.742C151.447 86.85 151.218 85.2447 151.008 83.9642C150.11 84.8242 149.345 85.818 148.733 86.9073Z" fill="#CBCBCB"/>
<path d="M152.097 90.9015C151.963 90.1753 151.849 89.4491 151.734 88.7802C151.6 87.9202 151.486 87.1557 151.371 86.4104C150.931 86.9455 150.53 87.5188 150.186 88.1113C148.523 91.0353 148.122 94.4944 148.676 97.8197C148.695 97.9344 148.714 98.0299 148.733 98.1446C149.192 94.8193 150.358 92.3348 152.097 90.9015Z" fill="white"/>
<path d="M163.812 91.3793C163.449 89.3344 163.182 87.6718 162.99 86.4678C161.978 85.7033 161.022 84.8624 160.124 83.9451C157.544 82.206 155.021 81.002 151.81 83.3526C151.543 83.5437 151.294 83.7731 151.046 84.0024C151.237 85.2829 151.486 86.8882 151.772 88.7802C151.887 89.4491 152.002 90.1562 152.135 90.9015C154.868 88.6273 158.996 88.8375 163.946 91.9335C163.889 91.7424 163.85 91.5513 163.812 91.3793Z" fill="#404040"/>
<path d="M173.96 94.4753C174.056 94.2842 174.132 94.093 174.247 93.921C175.298 92.2201 171.418 90.5001 169.106 89.6975C168.074 89.3344 167.137 88.9139 166.239 88.4744C166.316 88.9139 166.373 89.3344 166.469 89.8121C166.698 91.169 166.965 92.717 167.233 94.3224C169.66 96.3482 172.508 96.8833 173.96 94.4753Z" fill="#CBCBCB"/>
<path d="M228 226.739L231.65 232.816C231.65 232.816 241.932 238.397 240.499 233.696C239.065 228.994 236.275 228.88 235.033 227.141C233.829 225.401 228 226.739 228 226.739Z" fill="#CBCBCB"/>
<path d="M240.652 234.116C239.925 231.154 236.447 232.014 234.135 231.249C233.351 230.982 232.644 230.638 232.013 230.217V240.862H236.103C238.874 239.716 241.473 237.48 240.652 234.116Z" fill="#8A8A8A"/>
<path d="M234.135 231.249C233.351 230.982 232.644 230.638 232.013 230.217V233.696C232.013 233.696 235.453 233.696 240.518 233.696C239.581 231.23 236.332 231.976 234.135 231.249Z" fill="#404040"/>
<path d="M232.013 239.085V240.881H236.103C237.154 240.442 238.167 239.849 239.008 239.085H232.013Z" fill="#CBCBCB"/>
<path d="M232.013 235.492V237.289H240.365C240.613 236.734 240.785 236.142 240.804 235.492H232.013Z" fill="#CBCBCB"/>
<path d="M229.605 228.421C228.975 226.701 228 226.739 228 226.739C228 226.739 228.631 240.862 232.013 240.862C234.785 238.932 234.976 235.492 232.013 230.217C232.013 230.217 230.255 230.141 229.605 228.421Z" fill="#8A8A8A"/>
<path d="M230.962 228.497C233.714 228.287 234.804 227.828 236.428 228.994C238.053 230.16 238.645 230.867 236.199 230.485C233.752 230.103 231.956 229.338 231.497 229.415C231.039 229.491 229.988 228.574 230.962 228.497Z" fill="white"/>
<path d="M230.408 238.378C231.44 239.41 233.485 238.913 232.873 235.339C232.243 231.765 232.415 231.001 230.924 230.389C229.414 229.797 228.956 230.389 229.873 231.956C230.79 233.543 232.185 236.104 231.192 236.39C230.198 236.658 229.663 237.632 230.408 238.378Z" fill="#404040"/>
<path d="M14.1803 277.1C14.1803 277.1 6.37741 270.67 3.63133 274.755C0.885257 278.841 4.33457 283.764 6.74576 282.893C9.12347 282.056 14.1803 277.1 14.1803 277.1Z" fill="#CBCBCB"/>
<path d="M14.1804 277.1C14.4483 281.219 11.3003 283.329 11.3003 283.329L6.74579 282.893L9.99423 278.205L11.9031 278.439L14.1804 277.1Z" fill="#8A8A8A"/>
<path d="M11.9031 278.439L9.39146 276.999C9.39146 276.999 2.2248 280.147 3.99972 281.855C5.77464 283.563 6.71232 282.927 6.71232 282.927L10.0278 279.142L11.9031 278.439Z" fill="#404040"/>
<path d="M8.2863 274.688C10.731 275.258 9.25747 276.262 7.65 276.631C6.04254 276.965 2.66016 273.416 8.2863 274.688Z" fill="white"/>
<path d="M176.184 189.033C176.184 189.033 170.469 188.211 170.336 191.02C170.202 193.83 173.355 195.206 174.273 194.078C175.171 192.932 176.184 189.033 176.184 189.033Z" fill="#CBCBCB"/>
<path d="M176.184 189.033C177.521 190.963 176.623 192.932 176.623 192.932L174.273 194.059L174.464 190.81L175.457 190.352L176.184 189.033Z" fill="#8A8A8A"/>
<path d="M175.458 190.371L173.795 190.409C173.795 190.409 171.234 194.059 172.61 194.365C173.986 194.671 174.254 194.078 174.254 194.078L174.75 191.25L175.458 190.371Z" fill="#404040"/>
<path d="M172.572 189.606C173.929 189.167 173.508 190.084 172.839 190.734C172.17 191.383 169.457 190.638 172.572 189.606Z" fill="white"/>
<path d="M91.132 203.357C91.132 203.357 88.3035 198.331 85.991 199.936C83.6977 201.542 84.5195 204.886 85.9719 204.905C87.4435 204.943 91.132 203.357 91.132 203.357Z" fill="#CBCBCB"/>
<path d="M91.1319 203.357C90.4248 205.612 88.3035 206.09 88.3035 206.09L85.9719 204.924L88.6666 203.09L89.6412 203.606L91.1319 203.357Z" fill="#8A8A8A"/>
<path d="M89.6412 203.587L88.6092 202.306C88.6092 202.306 84.1564 202.497 84.7488 203.778C85.3412 205.058 85.9719 204.905 85.9719 204.905L88.5137 203.587H89.6412Z" fill="#404040"/>
<path d="M88.4946 200.854C89.6794 201.656 88.6857 201.886 87.7683 201.752C86.8319 201.599 85.7617 199.019 88.4946 200.854Z" fill="white"/>
<path d="M104.276 267.505C104.639 268.518 101.639 270.009 101.639 270.009L98.1033 263.511C98.1033 263.511 98.1224 262.269 99.8806 261.944C101.639 261.619 103.569 265.518 104.276 267.505Z" fill="#CBCBCB"/>
<path d="M104.276 280.214L101.639 270.009C101.639 270.009 103.913 266.492 104.276 267.505C105.06 269.722 105.671 274.462 105.079 278.341L104.276 280.214Z" fill="#404040"/>
<path d="M99.6513 271.251C100.741 274.271 102.25 276.965 103.741 279.66C103.875 279.908 104.047 280.176 104.257 280.214C104.945 276.946 104.104 273.372 102.919 270.315C102.384 268.958 100.034 262.861 98.7531 262.899C96.7847 262.938 99.2309 270.085 99.6513 271.251Z" fill="#8A8A8A"/>
<path d="M102.48 269.206C103.722 271.977 104.506 269.455 103.741 267.964C102.996 266.454 98.7913 260.988 102.48 269.206Z" fill="white"/>
<path d="M169.632 241.048C170.358 241.143 169.46 244.201 169.46 244.201L164.128 244.66C164.128 244.66 163.497 244.182 164.3 242.577C165.103 240.971 168.218 240.857 169.632 241.048Z" fill="#CBCBCB"/>
<path d="M176.225 245.902L169.46 244.201C169.46 244.201 168.887 240.952 169.632 241.048C171.218 241.239 174.009 242.538 175.709 244.526L176.225 245.902Z" fill="#404040"/>
<path d="M169.021 246.322C171.199 246.571 173.435 246.341 175.652 246.131C175.862 246.112 176.092 246.074 176.225 245.902C174.907 244.086 172.594 243.417 170.339 243.226C169.345 243.15 164.873 242.768 164.185 243.857C163.115 245.539 168.18 246.227 169.021 246.322Z" fill="#8A8A8A"/>
<path d="M169.517 243.188C171.658 243.207 170.779 241.602 169.575 241.659C168.371 241.717 163.211 243.112 169.517 243.188Z" fill="white"/>
<path d="M314.485 232.417C314.485 232.417 306.401 225.766 303.553 229.99C300.706 234.213 304.299 239.354 306.783 238.437C309.268 237.519 314.485 232.417 314.485 232.417Z" fill="#CBCBCB"/>
<path d="M314.485 232.417C314.753 236.698 311.485 238.895 311.485 238.895L306.783 238.437L310.147 233.563L312.134 233.793L314.485 232.417Z" fill="#8A8A8A"/>
<path d="M312.134 233.793L309.535 232.283C309.535 232.283 302.101 235.532 303.955 237.309C305.808 239.086 306.783 238.418 306.783 238.418L310.223 234.5L312.134 233.793Z" fill="#404040"/>
<path d="M308.369 229.894C310.892 230.467 309.382 231.518 307.72 231.901C306.038 232.283 302.56 228.556 308.369 229.894Z" fill="white"/>
<path d="M63.4936 31.5031C64.086 31.9427 61.8118 34.1787 61.8118 34.1787L56.9385 31.9809C56.9385 31.9809 56.6136 31.2547 58.1043 30.2418C59.5949 29.2289 62.3469 30.6431 63.4936 31.5031Z" fill="#CBCBCB"/>
<path d="M65.6914 37.4658L61.8119 34.1596C61.8119 34.1596 62.9012 31.0636 63.4936 31.484C64.7932 32.4205 65.4048 33.4333 65.9016 35.9942L65.6914 37.4658Z" fill="#404040"/>
<path d="M60.3976 35.8031C62.1749 37.0644 65.6532 38.9564 65.6914 37.4657C65.4238 35.2488 64.9269 35.0004 63.054 33.7582C62.2131 33.2039 58.5056 30.7004 57.3589 31.312C55.6198 32.2293 59.6905 35.3062 60.3976 35.8031Z" fill="#8A8A8A"/>
<path d="M62.366 33.2996C64.2198 34.3507 64.2389 32.516 63.1687 32C62.0794 31.4649 56.8812 30.1654 62.366 33.2996Z" fill="white"/>
</svg>
