<svg width="333" height="125" viewBox="0 0 333 125" fill="none" xmlns="http://www.w3.org/2000/svg">
<path d="M153.009 27.0464L153.717 28.9168L153.009 27.0464ZM6.24157 123.064C6.57355 124.117 7.69668 124.702 8.75019 124.37L25.918 118.96C26.9715 118.628 27.5565 117.505 27.2245 116.452C26.8925 115.398 25.7694 114.813 24.7159 115.145L9.45556 119.954L4.64692 104.694C4.31493 103.64 3.19181 103.055 2.1383 103.387C1.0848 103.719 0.499868 104.842 0.831826 105.896L6.24157 123.064ZM331.328 12.3911C332.23 10.6062 332.229 10.6055 332.227 10.6046C332.226 10.6042 332.225 10.6032 332.223 10.6024C332.219 10.6006 332.215 10.5985 332.21 10.5958C332.199 10.5906 332.185 10.5835 332.167 10.5747C332.131 10.5571 332.081 10.5325 332.016 10.5014C331.886 10.4392 331.697 10.3508 331.45 10.2393C330.955 10.0165 330.227 9.70162 329.264 9.32063C327.339 8.55864 324.479 7.53211 320.685 6.44748C313.097 4.27799 301.78 1.87724 286.751 0.894805C256.686 -1.07058 211.821 2.64354 152.301 25.1759L153.717 28.9168C212.736 6.574 257.031 2.9605 286.49 4.88629C301.224 5.84943 312.26 8.19897 319.585 10.2934C323.248 11.3407 325.985 12.3245 327.792 13.0399C328.695 13.3976 329.367 13.6882 329.806 13.886C330.026 13.985 330.187 14.0608 330.29 14.1102C330.342 14.1349 330.379 14.153 330.402 14.1641C330.413 14.1696 330.421 14.1734 330.425 14.1754C330.427 14.1764 330.428 14.177 330.428 14.1771C330.428 14.1771 330.428 14.1769 330.428 14.1769C330.427 14.1765 330.426 14.176 331.328 12.3911ZM152.301 25.1759C92.8434 47.6847 56.4227 71.6493 34.8294 90.0608C24.0335 99.2659 16.9488 107.079 12.5478 112.621C10.3475 115.391 8.81863 117.593 7.83263 119.117C7.33967 119.878 6.98246 120.47 6.74491 120.878C6.62614 121.083 6.53729 121.241 6.47636 121.351C6.44588 121.407 6.4224 121.45 6.40562 121.481C6.39725 121.497 6.39052 121.51 6.38549 121.519C6.38296 121.524 6.38085 121.528 6.37915 121.531C6.37829 121.533 6.37731 121.535 6.37688 121.536C6.37603 121.537 6.37524 121.539 8.14911 122.463C9.92299 123.386 9.9224 123.388 9.92193 123.388C9.92191 123.388 9.92154 123.389 9.9215 123.389C9.92143 123.389 9.92174 123.389 9.92244 123.387C9.9239 123.385 9.92696 123.379 9.93166 123.37C9.9411 123.353 9.95718 123.323 9.98012 123.281C10.026 123.198 10.0995 123.067 10.2024 122.89C10.4083 122.536 10.7323 121.998 11.1906 121.29C12.1071 119.874 13.5607 117.777 15.6801 115.108C19.9186 109.771 26.8229 102.144 37.4247 93.1046C58.6266 75.0268 94.6358 51.2832 153.717 28.9168L152.301 25.1759Z" fill="#FFC700"/>
</svg>
